<svg xmlns="http://www.w3.org/2000/svg" viewBox="0 0 278.47 460.95"><defs><style>.a{fill:#d39371;}.b{fill:#a7d5dd;}.c{fill:#072728;}.d{fill:#ce8463;}.e{fill:#ea5e5e;}.f{fill:#475652;}.g{fill:#225876;}</style></defs><path class="a" d="M209.25,308.59C208.25,301.47,208,293,208,293c.51.61,18.26-13.48,23-19,5.53-6.44,9-16,15-16.5,4-.33,12,1.38,18,.3,10-1.8,13-1.8,17,2.2,3.16,3.16-2,4-8,5.3-5.61,1.22-10,3.7-16,7.7a68.28,68.28,0,0,0-10,8c-11.23,10.34-27.91,27.5-32,35C212,321.51,210.24,315.73,209.25,308.59Z" transform="translate(-3.49 -4.03)"/><path class="a" d="M185.7,455.69A64.64,64.64,0,0,0,186,444c-.29-7.25,3.5-11.47,3-12,0,0,2-5-6-12s-24-31-24-38c0-2-31-7-31-7s-2,0-2,1a3.49,3.49,0,0,0,1,2s37,44,39,49,14,24,12,34,7-2,7-2A32.89,32.89,0,0,0,185.7,455.69Z" transform="translate(-3.49 -4.03)"/><path class="b" d="M118.5,190.5c-4.16,2.77-27.23,59.71-38.5,78.5-10.5,17.5-47.74,47.54-65,43-9.5-2.5-11.67,2.36-11.5,4.5,2,24.85,52.11,68.35,76.5,73.5,8.2,1.73,26.26-1,33-6,11.5-8.5,22.5-4.5,30-4,8.29.55,21.5,8.5,33-4,4.77-5.18,8-27,8-27a12.92,12.92,0,0,1,13-10c11,0,20.58-17.66,21-26,.29-5.69-1-19.34-6-22-6.08-3.21-23.23,8.33-29.5,5.5-5.41-2.45-8-11-5.5-18.5,3.3-9.9,4.88-32,4.5-41.5-.37-9.23-4.79-25.36-7.5-33.5-.5-1.5-7.91-.71-27,0C133.5,203.5,121.5,188.5,118.5,190.5Z" transform="translate(-3.49 -4.03)"/><path class="c" d="M160,64c-4,4-6,12-11,12s-22-1-27,4-16,7-27,2-22,2-22,2-17,13-3,22,16.51,2.57,22,2c5-.52,16,9,17,11s10,11,17,9,28-5,34-8,20-3,20-3,15,4,27-14c10-15,6.2-26.59,2-34-3.81-6.72-11-15-27-15S164.27,59.73,160,64Z" transform="translate(-3.49 -4.03)"/><path class="a" d="M187,113.18a10.82,10.82,0,0,1-4,.82s-1.92,3.88-2,5c-.17,2.37,5,10,5,10s-14,6.16-24,1c-7.51-3.88-8.91-19.41-8-19,10.66,4.83,17.71-3.13,17.9-7l.12-2.46,0-1.53c-.06-4-1.39-5.61-2-8a11.09,11.09,0,0,1,.5-6c1.5-3,5.08,0,5.5,0a57.75,57.75,0,0,0,11-1c2.58-.47,6.34-.89,8-2a19.59,19.59,0,0,0,4.5-4s1.44,8.87,2.5,12c.45,1.32,2.71,3,2.5,5a8.48,8.48,0,0,1-5.5,7C197.35,103.82,193,110.76,187,113.18Z" transform="translate(-3.49 -4.03)"/><path class="d" d="M174,106a16.36,16.36,0,0,0,6,7c1.19.76-3.38,1.2-5,0s-4.24-3.3-5-5a9.28,9.28,0,0,0,1.3-2,13.65,13.65,0,0,0,.7-4S173.08,104.22,174,106Z" transform="translate(-3.49 -4.03)"/><ellipse class="d" cx="176.89" cy="95.51" rx="3.16" ry="4.61" transform="translate(-24.8 57.87) rotate(-18.74)"/><ellipse class="d" cx="195.95" cy="101.95" rx="4.24" ry="2.91" transform="translate(-18.19 164.39) rotate(-45)"/><path class="e" d="M180.5,101a27.13,27.13,0,0,1,4.5.2c3,.8,5,2.8,5,3.1a6.62,6.62,0,0,1-5.7,1.3C181,105,180.5,101,180.5,101Z" transform="translate(-3.49 -4.03)"/><path class="f" d="M193,94.4c1.59,1.13,7.51,3.31,6.51-.44a5.49,5.49,0,0,1-3.51.34C194.39,94,192.4,91.84,193,94.4Z" transform="translate(-3.49 -4.03)"/><path class="f" d="M177.22,88.35c1.13,1.59,6,5.58,6.29,1.72a5.61,5.61,0,0,1-3.42-.83C178.67,88.4,177.48,85.73,177.22,88.35Z" transform="translate(-3.49 -4.03)"/><path class="a" d="M127,93.4c.83-5.12,1.27-10.33,3-15.28,7.25-19.38,21.1-32.92,38.44-43.26,5.86-3.5,11.74-7.06,18.21-9.45,2.87-1.05,3.45-3.85,4.31-6.22a24.11,24.11,0,0,1,9.49-12.14,19.29,19.29,0,0,1,7.21-2.92,3.32,3.32,0,0,1,3.66,1.27c1,1.46.09,2.69-.82,3.68a85.69,85.69,0,0,0-6.81,8.41c-.92,1.31-2,2.58-1.84,4.56,3.1.85,6-2.51,9.17-.6,0,1.87-1.47,2.17-2.69,2.7a23.26,23.26,0,0,0-9.76,7.29,10.32,10.32,0,0,1-4.89,3.24c-15.27,6-28.28,15.12-37.83,28.68a34.06,34.06,0,0,0-5.71,13.56c-.72,5.2-1.78,6.57-3.27,16.21-.17,1.08.16,2.87-.45,2.84C140.17,93.26,133.56,93.57,127,93.4Z" transform="translate(-3.49 -4.03)"/><path class="a" d="M198.86,125.7c-.17-.49-.33-1-.5-1.48,8.24-3.28,16.25-6.9,23-12.86,11.22-9.86,19.51-21.64,23.28-36.19a38,38,0,0,0-1-23.17c-.52-1.38-1.14-2.77,0-4.44,3.76,1.17,3.52,5.44,6,7.84,2.43-2.2,2.41-5.18,3-7.85a67.41,67.41,0,0,0,.86-7.8c.12-1.53.14-3.11,1.95-3.64s2.91.55,3.87,1.7c3.54,4.25,3.75,9.36,3.53,14.52a17.83,17.83,0,0,1-2.22,7.47c-3.82,7.27-4.7,15.46-7.19,23.14-5.87,18.09-13.51,35.17-27.95,48.24-5.62,5.09-11.49,10-18.84,12.52.46-3.67-1.37-6.71-2.77-9.86-2.65-1.43-3.85-4-5-6.55a2.53,2.53,0,0,1,0-1.06C198.78,126.05,198.82,125.87,198.86,125.7Z" transform="translate(-3.49 -4.03)"/><path class="g" d="M126,128c-.2,1.4-17.82,34.63-12,55,2,7,11.71,10.87,16,14,11.58,8.44,19.1,7.21,36,5,3-.39,7.36.81,10,0,3.38-1,8-4,9-16,.91-11-2-19,4-27,5.16-6.88,11.55-12.78,18-16,2-1-5.88-19.71-8-19-3,1-15,2-15,2-9,7-23.82,4.41-27-3-3-7-1.66-11.55-3-12-3-1-7-6-7-16,0-1-19-3-20-2S128,114,126,128Z" transform="translate(-3.49 -4.03)"/></svg>