<svg xmlns="http://www.w3.org/2000/svg" viewBox="0 0 436.75 573.94"><defs><style>.a{fill:#61aeaa;}.b{fill:#549590;}.c{fill:#c6a485;}.d{fill:#bab9b8;}.e{fill:#083233;}.f{fill:#926238;}.g{fill:#073132;}.h{fill:#524844;}.i{fill:#cb8143;}.j{fill:#e8b017;}.k{fill:#5c6765;}.l{fill:#9a9a9a;}.m{fill:#df9454;}.n{fill:#ddbfa0;}.o{fill:#a3714f;}.p{fill:#918279;}.q{fill:#926036;}</style></defs><path class="a" d="M312.24,177c5,3,41,22,43,24,2.51,2.52,4.08,11.3,0,13-14.75,1-13.09-22.73-25.88-26.83-15.87-5.1-31-9.27-47.12-13.17-4.17-.78-9.23-3.89-13.68-1.86-4.86,7.19-7.57,17.09-11.32,24.86,23.93,28.4,72.93,45.91,109.78,48.26,34.86.72,40-42.62,35.67-69.76-5.47-35.18-40.18-82.83-75.62-91.2-9.33-2.12-18.93-3.26-27.93-6.79a4,4,0,0,0-3.62.15c-1.87,4.23-4.28,3.34-9.62,5.76L274.24,89c-5.84,1.56-14.17,3.24-19.42-1-4-3.82,2-8.9,2.42-13-28.43,3.08-79.5,50-78.35,78,2.45,7.39,4.8,17.64-2.46,23-9.79-2.51-5.3-18.8-2.33-25.41,3.78-10.91-6.58-25.71-10.86-35.58l-15,5c-6.59.75-9.53,1.27-15.24,4.49,4.5,32.47,1.44,87.71,35.15,103.78,3.1,1.29,8.09-.27,8.79-1.17,4.8-6.16,6.59-14.11,10-21.1.58-1.18,1.68-2.27.67-3.73-4.58-1.8,63-34,59.62-37.27Z" transform="translate(-1.9 -1.63)"/><path class="b" d="M304.53,130c-4.45,11.15-3.73,21.82-3.78,32.39-14.31-5.92-38.71-2.29-54.44,1.76-1.73-2.8-5.36-6.51-6.07-8.18-7.89-18.45-13.29-23.47-5.43-44l-33.57,60a78.1,78.1,0,0,1,10.9-3.43c-2.9,8.93-7.75,25.49-8.38,25.65-7.41,1.48-5.21,2.87-12.52,4.78-1.71.45-8.54,5-10,6-2.45,1.62-13.34,8.34-14,9-3,3-8.9,4.94-8,8,.23.78,3.28,3.25,6.89,5.9,6.74,4.95,14.57,2.18,21.85-1.93a87.2,87.2,0,0,0,14.26-11l22-22c1.86-2.38,2.33-19.08,5.07-27.54,5.48-.6,14.51.31,17.93,1a1.85,1.85,0,0,0,0-.23c13.39,1.63,56,.55,55.82-2.37a1.72,1.72,0,0,1,.55-.06L310.41,144C308.57,139.6,306.73,135.25,304.53,130Z" transform="translate(-1.9 -1.63)"/><path class="c" d="M99.47,395.25c13,14.13,56.66-8.57,67.39,7.33-20,18.66-73.18,80.71-91.44,101.08-5.9-1.51-23.91-5.79-20.68-14,12.92-27.78,24.4-56.21,37.87-83.74C93.93,403.21,96.08,396.2,99.47,395.25Z" transform="translate(-1.9 -1.63)"/><path class="d" d="M180.07,108C173,96.56,165.72,85.24,159,73.6,150.51,58.87,142.51,43.89,134.26,29c-1.93-3.38-4.74-9.41-9.53-6-28.56,24.43-23.57,8.82.92,54.19l0,.74,12.47,18c5.13,6.51,7.72,20.1,18.55,17.85l7.75-.76c5.74-.72,7.59.16,16.38-1.48C182.47,111.19,180.63,109,180.07,108Z" transform="translate(-1.9 -1.63)"/><path class="e" d="M334.41,554.73h-7.36c-6.4-87.54-9.58-175.2-7.66-262.91,3.27-1.26,6.58-1.73,9.92.23Z" transform="translate(-1.9 -1.63)"/><path class="f" d="M219.14,495.13c6.35,5.2,12.53,12.14,9.11,20.65-4.59,13.86-4.84,27.84-2.67,42.1.35,5.94,1.38,12.16-1.74,17.69-10.74-16.76-15.12-36.06-22.9-53.9-.37-2,1.11-3.24,2.14-4.56C208.66,510,214.88,503.26,219.14,495.13Z" transform="translate(-1.9 -1.63)"/><path class="c" d="M263.94,202.73c-22.85,8.75-43.48,23.15-66,32.39,8.36-14.58,16.08-29.64,26.79-42.69a101.89,101.89,0,0,0,16.7-3c4.91-1.16,8.23,2.55,12.09,4.53A26,26,0,0,1,263.94,202.73Z" transform="translate(-1.9 -1.63)"/><path class="f" d="M65.47,515.58c2.3,14.07-1.29,19.55-15.38,22.37-15.92,4.67-31.32,13.32-47.67,15.45l-.52-1.14q20.24-18.06,40.55-36c6.75-1.27,13.88.85,20.67-1.28A2.15,2.15,0,0,1,65.47,515.58Z" transform="translate(-1.9 -1.63)"/><path class="g" d="M281.36,373.18c0,61.33,3.82,122.66,8.07,183.85h7.91c-.38-2.63-.71-5-1-7.35l-.52-1.83c.34-5.5.06-7.39-.21-13a54.7,54.7,0,0,1,0-10c-4.36-79.46-4-153.93-4.39-233.49a9.56,9.56,0,0,0-9.91,0q0,37.86.12,75.73l-.11,5.06Z" transform="translate(-1.9 -1.63)"/><path class="h" d="M375.51,262.73c-.07,6.12-2.06,9-7.5,10.94-3.1,3.08-7.29,2.14-11.12,2.19-21.62,2.35-43.45-.68-65.08,1.52-3.52,1.06-7.68-.47-10.67,2.69-.16-.95-.32-1.91-.41-2.5-2.61-1.24-2.11-3.43-4.49-4.57,3.88-1.38,4.88-1.71,8.76-3.09l3-1.08c4.72-1.5,6.55-2.52,11.44-3.25-.89-.14,1.24-.35.39-.67,8.05-3.66,16-7.53,22.66-13.47,4.22.35,8.46-.38,12.69-.53a.63.63,0,0,0,.76,0,174.54,174.54,0,0,1,29.72-.25c6.38.62,8.32,3,9.54,9Z" transform="translate(-1.9 -1.63)"/><path class="e" d="M368.89,475c1.19,25.9,2.35,51.53,3.54,77.46l-7.48.68c-1.72-28.89-3.75-56.92-5-85.65h0c-3.53-57.65-2.09-117-2.84-175,2.91-2.23,6.06-1.51,8.92-1.17,3.52,58.48-.29,101.5,2.72,160.39Z" transform="translate(-1.9 -1.63)"/><path class="i" d="M219.14,495.13a167.66,167.66,0,0,1-18.2,26.54l-16.49-20.41c10.32-4.91,20.35-10.39,26.54-20.41Q215.07,488,219.14,495.13Z" transform="translate(-1.9 -1.63)"/><path class="h" d="M318.24,292c18,0,37.36,1,55.17,0,.18-1.65.33-3.08.5-4.68l-6.84-1.26c-11.44-3.05-25.82.68-38.5-1.16-20-1.16-39.48-1.78-59.24,1.5.26,1.79.45,3.1.62,4.31A126.2,126.2,0,0,0,291.14,292c9.11,0,14.93,0,24.1,0Z" transform="translate(-1.9 -1.63)"/><path class="b" d="M211.64,101c-8.71,13-33.76,35.69-32,51.6,3,8.82,4,18.12-2,26-17.68-4.64,0-26.41-4-37.59a180.44,180.44,0,0,0-6.37-17c2.33,5.61,6.94,13.52,9.59,19.88C184.65,126,197.64,113.05,211.64,101Z" transform="translate(-1.9 -1.63)"/><path class="b" d="M295.45,77.66c.09-.31.19-.61.29-.91C325,81.68,353.57,84.41,369,113.49c-10.25-6.66-16.5-18.7-28.72-22.78A376.08,376.08,0,0,0,295.54,79,.89.89,0,0,1,295.45,77.66Z" transform="translate(-1.9 -1.63)"/><path class="g" d="M366.67,275.55c0-.27,0-.54-.07-.81l-9.82.07c.46,4.19-.54,7.19.1,11.17,2.52,0,6.84,0,9.36,0Z" transform="translate(-1.9 -1.63)"/><path class="j" d="M256.76,53.85c-4.88-3.12-11.53-1.45-14.84,3.74s-2,11.92,2.83,15,11.52,1.45,14.84-3.74S261.64,57,256.76,53.85ZM246.25,70.28a8.37,8.37,0,0,1,9-14.08,8.37,8.37,0,0,1-9,14.08Z" transform="translate(-1.9 -1.63)"/><path class="g" d="M291.15,285.17l-10.12,0,.12-2.11a17.33,17.33,0,0,1,.56-5.77l9.44-1C291.24,279,292.61,282.23,291.15,285.17Z" transform="translate(-1.9 -1.63)"/><path class="b" d="M214.56,98.39l-2.76,2.41Z" transform="translate(-1.9 -1.63)"/><path class="k" d="M325.45,251.55l-1.45,0Z" transform="translate(-1.9 -1.63)"/><path class="k" d="M336,250.86l-.76,0Z" transform="translate(-1.9 -1.63)"/><path class="l" d="M344.27,250.16l-.9.06Z" transform="translate(-1.9 -1.63)"/><path class="h" d="M281.14,282.19v.89C281.06,282.76,280.81,282.45,281.14,282.19Z" transform="translate(-1.9 -1.63)"/><path class="m" d="M172.24,194c5-2,9-1,8.28-.58-5.23,3-7.85,8.88-5.53,14.67l22.53-11c15.42-7.3,33-4.51,48.42-11.43,7.21-2,6.93,10.64,13.55,11.8,3.65-7.76,6.31-15.88,9-24,1.25-3-4.3-2.69-6-4A85,85,0,0,0,195.12,175c-8.09,4.08-15.92,9.41-23.76,14.22-1.28.81-2,2.49-3,3.76" transform="translate(-1.9 -1.63)"/><path class="c" d="M268.24,172c-8-2-18.09-3-24.82-6.5,6.22-2.83,18.15-.16,24.89.12,9.53,1.28,16.12.3,25.65-.33,4.28-.29,6.5-3.38,9.06-1.72,2.22,1.43,19.22.43,31,23.2.69,1.32-.39,2.94-1.69,2.24C321.24,183,284,175.15,268.24,172Z" transform="translate(-1.9 -1.63)"/><path class="c" d="M316.5,234.17C300,253.47,272.33,256,250.17,266c-13.28,4.93-26.51,10-39.77,14.95a2.25,2.25,0,0,1-2.24-.35c27.94-12.54,57-22.3,85.25-34.22,5.89-3.21,16.49-8.13,19.38-14.24Z" transform="translate(-1.9 -1.63)"/><rect class="g" x="289.28" y="262" width="86" height="3" transform="translate(-13.68 13.94) rotate(-2.64)"/><path class="b" d="M325.2,186c1.87.46,4.74,1.93,7.46,2.6l-4.5-11.29c5.75,1.74,5.58,10.34,10.35,13.29,7.17,4.45,18.94,5.21,19.16,16.65.05,2.88.51,5.93-2.94,7.31-9.19,2.14-13.52-11.06-17-17.6C336,190.86,329.61,189.31,325.2,186Z" transform="translate(-1.9 -1.63)"/><path class="b" d="M279.57,148.18c-9.08-7.69-13.11-20.84-6-31.14C265.82,140.32,293.53,129,279.57,148.18Z" transform="translate(-1.9 -1.63)"/><path class="i" d="M195.11,187.75c-8.57,2.42-18,10.24-26.75,5.26,10.45,1.25,17.35-5.77,27.41-8.38-.39,1.83-.53,2.48-.67,3.12Z" transform="translate(-1.9 -1.63)"/><path class="l" d="M195.12,175l-3,1.44Z" transform="translate(-1.9 -1.63)"/><path class="n" d="M316.5,234.17c-8.59,6.76-17.07,13.76-27.87,17-25.77,9.45-52.22,18-77.31,28.86,24.93-11.31,54.45-22.3,81.45-32.07,3.35-1.35,23.89-12,20-15.8-17.92-7-33-18.79-48.85-29.39-3.84-1-6.72,1.62-9.57,3.14-49.39,24.51-97,52.3-144.94,79.48-17.77,10.55-39.17,27.57-38,50.41C77,381.74,125.1,436.14,154.85,471c9.54,10.4,18.82,21.12,29.6,30.29,5.15,2.28,23.67-11.9,25.22-18.1-14.24-30.84-26.72-62.83-45.76-91.23-10.85-18.24-33.34-32.27-33.06-55.3-1.39-19.09,51.22-25.85,66.33-34.26q42.23-16.77,84.41-33.67c15.84-7,41.2-10.92,44.74-30.83ZM92.86,325.67c-2.39-3.06-.11-5.2,1.49-7.11.63-.75,2.45-.52,4.33-.84C97.59,321.89,97.33,325.27,92.86,325.67Z" transform="translate(-1.9 -1.63)"/><path class="i" d="M280.63,48.9l-.85,0c2-3.72,4.32-7.67,4.61-11.88-5.72-4.62-11.08-.51-14.31,4.52C273.19,22.44,299.93,34.09,280.63,48.9Z" transform="translate(-1.9 -1.63)"/><path class="i" d="M270,42.26l-.62.76Z" transform="translate(-1.9 -1.63)"/><path class="c" d="M237.24,317l39.35-40c14.65-9,24.82-11.39,36-17.39,8.94-3.73,12.54-13,17.21-20.8l-3.51-.95C320.26,255.93,301,260,285.22,266c-34.89,13.38-69.09,28.53-104.31,41.06-13.23,6.35-40.54,10.49-48.61,21.57-12.19,24,20.94,44.5,31,64.24,19.33,27.86,30.13,60.55,46.07,90.33,1.77,0,1.38-1.39,1.63-2.39-12-28-23.69-56.47-40-82.48a8.92,8.92,0,0,1-1.34-5.3ZM133.4,344.48c-4.09-15.59,7.6-19.93,19.47-24Z" transform="translate(-1.9 -1.63)"/><path class="l" d="M136.39,34.42c1.45-1,2.1-.15,2.74,1.11,11.18,21.8,24,42.78,35,64.65l-.72.49C162.83,85.31,155.18,68,145.72,51.88,143.32,45.66,136.62,41.18,136.39,34.42Z" transform="translate(-1.9 -1.63)"/><path class="m" d="M295.74,76.75c-5-2.38-5.43-11.09-5.78-16.06,3.14-7-.73-11.87-7.72-14.42,9.38-12.69-7.54-18.67-12.21-4a1.91,1.91,0,0,0-.71,1.56h0c-5.47,1.08,1.87-18.89-9.77-27.87-5.47-2.78-9.87-.85-14.67,1.43-10.32,4.09-7.57,19.42-6.38,28.26v-.09c2.05,19.64,10.21,23.28,24.59,13.11a13.94,13.94,0,0,0,7.14,12.81c-2.46,4.07-2.93,10.44-8.05,12.12-2.75-1.88-.48-5.52-3.12-7.1-10.59,7.44-3.25,15.77,7.71,11.48,9.71-3.86,22.84-1.35,29.81-10.13C296.81,77.5,295.86,77.13,295.74,76.75Z" transform="translate(-1.9 -1.63)"/><path class="i" d="M162.18,112.19c-5.65,0-12.55,2.12-16.29-3.8-2.71-4.58-5.87-11-7.82-15.08a6,6,0,0,1,1.17-6.83,94.11,94.11,0,0,0,8.88-10.07c-7.88-.41-8.88,2.59-14.43,7.07,3.87-5.93,9.47-11.21,7.09-19.12l-4.56,2.08c-.35-2.86-.69-5.68-1-8.51-3.22-1.69-4.18.73-5.28,2.91l-7.42,10.68C109,90.43,115,96.7,133,107.77v17.72c6.33-1.58,12.43-4,18.65-5.93,4.33.13,8.37-2,11.69-4.52C163.48,113.61,162.7,113.71,162.18,112.19ZM127.24,78c.17-.66,6.66-9.34,6.84-10l.62,0,.42,2C134.6,70,127.76,78,127.24,78Z" transform="translate(-1.9 -1.63)"/><path class="l" d="M162.22,115.15l-1.63,1.29Z" transform="translate(-1.9 -1.63)"/><path class="d" d="M133.66,83.49c-.09.15-.19.29,0,.05l0,0Z" transform="translate(-1.9 -1.63)"/><path class="i" d="M196.61,197.49c13.62-9.36,31.82-5.56,46.69-11.87,8.34-5.23,10.12,4.65,13.24,10.34l-2.22-.07c-8.65-8.69-19.48-4.18-30.09-2.74C215,193.74,205.46,196.73,196.61,197.49Z" transform="translate(-1.9 -1.63)"/><path class="m" d="M253.62,195.22l.7.67Z" transform="translate(-1.9 -1.63)"/><path class="o" d="M258.42,27.13,247.1,31C246.75,24.52,252.59,24.11,258.42,27.13Z" transform="translate(-1.9 -1.63)"/><path class="o" d="M237.34,35c2.2-.76,4-1.42,5.9-2.07-1.82-.94-5.64-3-5.9-1.46a12.22,12.22,0,0,0-.1,1.58Z" transform="translate(-1.9 -1.63)"/><path class="i" d="M255.92,44.84c.09,7.31-7.62,5.26-12.15,4.76.06-.41,4.8-.7,4.87-1.11C251.37,47.53,252.73,46,255.92,44.84Z" transform="translate(-1.9 -1.63)"/><path class="i" d="M274.24,45l6.53-4.7c.51-2.84-8.92.66-8.73,3.89-.19.59.82,0,1.2.81Z" transform="translate(-1.9 -1.63)"/><path class="p" d="M250.62,36.14c0-2.32,3.66-1.72,5.23-2.45C257.73,35.89,251.49,39.47,250.62,36.14Z" transform="translate(-1.9 -1.63)"/><path class="p" d="M240.12,38.25a19.38,19.38,0,0,1-2.94.34,3.8,3.8,0,0,1,.27,1.57v0c0,.11,0,.21,0,.32a3.25,3.25,0,0,1,.18.68C239.22,41,241,39.48,240.12,38.25Z" transform="translate(-1.9 -1.63)"/><path class="g" d="M318.76,285.24l-.24-9.65h10.22q0,5.18-.05,10.35Z" transform="translate(-1.9 -1.63)"/><path class="q" d="M438.46,71.58a.16.16,0,0,0,0,.07Z" transform="translate(-1.9 -1.63)"/><path class="i" d="M54.91,493.07l.16.09c6.6,3.88,13,8.07,20.35,10.5l-10,11.92c-5.75.4-16.49.8-22.24,1.2Z" transform="translate(-1.9 -1.63)"/><path class="a" d="M176.49,153.27c3.62,8.78,2.79,18-1.77,20.17C172,166.6,173.36,160.19,176.49,153.27Z" transform="translate(-1.9 -1.63)"/><path class="i" d="M182.36,199c4.32-3.65,8.93-7.13,12.74-11.25l5.3-.93.64,1.41L182.37,199Z" transform="translate(-1.9 -1.63)"/><path class="i" d="M182.36,199c4.32-3.65,8.93-7.13,12.74-11.25l5.3-.93.64,1.41L182.37,199Z" transform="translate(-1.9 -1.63)"/><path class="a" d="M353.73,210.53c-4.1.61-11-6.56-12.49-13.53C346.4,197.85,353.86,205.32,353.73,210.53Z" transform="translate(-1.9 -1.63)"/><path class="i" d="M257.73,63.43c-2.59,0-4.78,1.47-7,.58,4.48-1.47,21.75-12.85,24.52-7,1.21,5.25-1,8-3.69,13-3.67,5.67-3.69,13.55-11.08,15.74-.54-3.44-1-5-1.53-8.65-17.74,21.36,22.45,4.9,30.77,3.47.42,6.75-29.55,13.44-35.1,10.18-5-5.93-.68-11.16,2.28-15.61L258,75a17.55,17.55,0,0,0,1.27-6C259.24,65,257.73,63.43,257.73,63.43Z" transform="translate(-1.9 -1.63)"/><path class="q" d="M367.73,109c17.51,8.09,23.35,16.63,42.15,14.08a1.91,1.91,0,0,0,.66-.22L432.24,111c3.56.75,9-6.67,5-9-5.46-3.17-3.1-28.39-3.9-31.67C430.57,59,420.46,46,414.91,43.52c-11.23-5-18.81-13-30.74-10.14-18.66,4.67-24.81-12.62-42.86-22.52h0v0C328.8-.6,318.48,8,306,7.42a1.53,1.53,0,0,1-.3,0C287.56,4.12,265.3-4.81,251,9.52c-1.46,1.46-3.39,5.26-5.38,4.73-2.73-.73-8.62,1.83-10,3.94A21.58,21.58,0,0,0,232.24,25c-1,4,1.14,21.19,3,18,2.82-4.86,3.35-17.53,7-20,1.23-.84,1.41-3.76,2-4,.06,0,2.93-1,3-1,10-4,19.12,10,18.79,22.49-.11,4.31,4.21,5.27,4.84.67,3.1-15,23.88-7.58,11.88,4.65l-7.2,7a5.46,5.46,0,0,0,1.62,8.94c3.73,1.58,8.9,1.11,10.32.94a1.88,1.88,0,0,0,.7-.24c21.77-12.64,22.27,21.93,46.7,10.83,8.25-3.82,18,24.31,26.24,29.29a1.44,1.44,0,0,1,.34.27l5.72,5.77A1.88,1.88,0,0,0,367.73,109Z" transform="translate(-1.9 -1.63)"/><path class="q" d="M309.72,9l0-.16.06.18Z" transform="translate(-1.9 -1.63)"/><path class="q" d="M337.12,11.38l0-.08h.09Z" transform="translate(-1.9 -1.63)"/><path class="q" d="M430.24,123.49v-.1l0,0Z" transform="translate(-1.9 -1.63)"/><path class="j" d="M280.84,50.2C276,47.07,269.31,48.75,266,53.93S263.94,65.85,268.82,69s11.53,1.45,14.85-3.74S285.72,53.32,280.84,50.2ZM270.32,66.63a8.38,8.38,0,0,1,9-14.09,8.38,8.38,0,0,1-9,14.09Z" transform="translate(-1.9 -1.63)"/></svg>