<svg xmlns="http://www.w3.org/2000/svg" viewBox="0 0 624 492"><defs><style>.a{fill:#d0e3e1;}.b{fill:#fefefe;}.c{fill:#d03f22;}.d{fill:#5e849a;}.e{fill:#7bb7db;}.f{fill:#afc7cc;}.g{fill:#517184;}.h{fill:#6c9cb9;}.i{fill:#f6907a;}.j{fill:#fddfc3;}.k{fill:#f9bd99;}.l{fill:#faccaf;}.m{fill:#fcc52d;}.n{fill:#f69829;}.o{fill:#352604;}.p{fill:#e4ad8f;}.q{fill:#ba6c48;}.r{fill:#f58e5a;}.s{fill:#3e3d32;}.t{fill:#ee4923;}.u{fill:#ed1c24;}.v{fill:#fff;}.w{fill:#919087;}</style></defs><path class="a" d="M328,363.58c21.58-.34,43.16-4.47,63.9-8.61,15.34,6.16,41.45,5.46,52.79,6.67m-14.58,126c-75.79-1.32-166.21-5.17-221.68-63.5-23-29.7-38.81-68.55-29.92-106.21,9.79-3.22,22.67-3.79,33.72-5.12a194.84,194.84,0,0,1,57.87,6c-6,7.42,6.88,15.83,11,21.23-8.27,3.44-28,17-11.78,22.9,0,0,22-10,97.4-11.13,44.42-1.34,90.94,8.49,93.46,6.15,3.83-1.51,8.35-3,10.31-6.44.18-2.35.6-2.7,3.57-3.06,10.79-3.59,68.08-.63,50.56-19.33-15.49-4.69-7.18-9.89-16.23-18.19,18.38-4.44,38.07,4.71,57.13,4.34,10,1.5,26.24-11.58,32.85-2.35C612,332,621,364.83,621,392,616.38,471,492,482.78,430.09,487.6Zm95.78-131.21c.09-6.44-21.93-12.43-12.08-2.56C517.25,355.23,523.94,362.74,525.87,356.39ZM424.25,471.78c-.9-6.47-9.54-.8-13.33,0C402,479.38,423,476.19,424.25,471.78ZM252.42,376c-11,1.18,11.63,17.49,8.94,6.33C258.67,380,256.47,376,252.42,376Zm-38.3-18.67c-2.18,5.47,6.18,9.45,6.7,2.86C222.93,351.55,213.84,346.38,214.12,357.31Zm26.63-34.56c-7.9-.09.73,12.82,5.09,11.05C250.6,331.83,244.27,322.83,240.75,322.75Zm-47,12.43a22.31,22.31,0,0,0,10.72-4.29C208.87,321.15,182.62,332.3,193.75,335.18Zm114.77,107.3c-7-.5-2,11.67,2.18,11.43C316.35,453.21,312.82,442.5,308.52,442.48Zm252.89-64c3-.75,11.75-5.72,7.65-8.91C565,366.56,552.15,377.42,561.41,378.44Zm-24.6,64.95c1.34,5.84,8.14,0,11.32-1.51C554.92,433.66,537,438.16,536.81,443.39Zm-321.46-48c.47,5.66,9.33.5,12.34-.58C233.87,387.59,215.14,390.76,215.35,395.42Zm171.24-29.61c-2,5.15,5.9,8.81,6.88,2.87C396,361.39,385.75,356.28,386.59,365.81Zm89.49,99.86c-.63-3.92-11.29-11.29-11.37-3.94C466.31,464.81,474.25,472,476.08,465.67ZM576.9,322.37c-.38-5.18-19.61-6.35-11.37.29C568.86,323.21,576.06,327.67,576.9,322.37ZM348.13,415.71c.41-5.24-11.89-11.62-9.95-3.41C340.54,415,345.36,421.05,348.13,415.71Zm6.32-30.08c2.72-.94,10.93-1.78,9-5.73C360.56,375.15,344,383.87,354.45,385.63Zm196.13-32.71c1.44-4.41-5.05-7.74-6.8-3.26C540.88,356.12,550.92,361.54,550.58,352.92Z"/><path class="b" d="M525.87,356.39c.32,1.25-.74,1.78-2,2.28a3.29,3.29,0,0,1-3.47-.58,43.82,43.82,0,0,0-6.57-4.26c-2.28-1.31-3.17-2.79-2.55-4.12s3.51-2.35,5-1.29c2.73,2,6.11,3.36,8.61,5.54A2.56,2.56,0,0,1,525.87,356.39Z"/><path class="b" d="M424.25,471.78c-.06.78-.58,1.56-2.32,2.06-2.67.76-5.21,1.79-7.87,2.62-2.49.77-4,.46-5.13-1.26-.88-1.33-.19-2.65,2-3.46,2.7-1,5.53-1.79,8.25-2.78S424.29,469.31,424.25,471.78Z"/><path class="b" d="M252.42,376a4.19,4.19,0,0,1,3.24,1,56.07,56.07,0,0,1,5.7,5.37c1,1.12.61,2.6-.78,3.46-1.15.71-3.68.65-4.62-.33-1.86-1.95-4.14-3.62-6.07-5.51a2.08,2.08,0,0,1-.23-2.77A2.47,2.47,0,0,1,252.42,376Z"/><path class="b" d="M193.75,335.18a2.28,2.28,0,0,1-2.49-1.34c-.44-1.11-.57-2.25.85-3.08a69.89,69.89,0,0,1,8.92-3.85,3.37,3.37,0,0,1,3.64,1.12,1.86,1.86,0,0,1-.2,2.86,9.74,9.74,0,0,1-3.67,2.1C198.63,333.71,196.87,335.18,193.75,335.18Z"/><path class="b" d="M561.41,378.44a3.38,3.38,0,0,1-3.2-1.68,1.67,1.67,0,0,1,.36-2.58c2.29-1.38,3.75-3.36,6.12-4.67a4,4,0,0,1,4.37,0c1.42.93,1.86,2.23.68,3.28-2,1.79-3.83,3.72-6.41,5.1A3.17,3.17,0,0,1,561.41,378.44Z"/><path class="b" d="M386.59,365.81c0-1,0-2,0-2.93,0-1.38,1.4-2.37,3.22-2.37a3,3,0,0,1,3.3,2.34,29.24,29.24,0,0,1,.35,5.83c0,2-1.12,2.94-3.28,3-2.37,0-3.49-.86-3.57-2.9,0-1,0-2,0-2.93Z"/><path class="b" d="M348.13,415.71c0,.7-.74,1.52-2.16,1.89a3.79,3.79,0,0,1-3.92-1,45.54,45.54,0,0,0-3.86-4.3c-1.12-1-.61-2.17.36-3.11a4,4,0,0,1,4.18-.58C344.57,409.21,348.14,413.73,348.13,415.71Z"/><path class="c" d="M360.24,316.58l.45.3Z"/><path class="b" d="M462.55,420.82a2,2,0,0,1-2.5-1.77c-.17-1.13,2.93-2.63,5.15-2.51,1.3.07,2.06.58,2,1.7C467.09,419.61,465.05,420.82,462.55,420.82Z"/><path class="b" d="M454.1,364.21c1.4-.07,2.58.19,2.54,1.63,0,1.22-1.92,2.34-4.08,2.36-1.45,0-2.28-.61-2.35-1.68C450.11,365.14,451.68,364.22,454.1,364.21Z"/><path class="d" d="M311,422.38l0-.32a1.13,1.13,0,0,1,.14.22S311,422.35,311,422.38Z"/><path class="a" d="M392.28,445.89c2.91-.75,5.67-1.92,8.87-1.9,2.16,0,2.66.56,1.93,2.1a7.36,7.36,0,0,1-4,3.55,29.82,29.82,0,0,1-7.6,2Q391.87,448.76,392.28,445.89Z"/><path class="b" d="M286.63,376.82c.07.88-.53,1.38-1.61,1.45-1.29.09-2.36-1.19-2.39-2.77,0-1,.55-1.58,1.86-1.61C285.62,373.86,286.66,375.33,286.63,376.82Z"/><path class="b" d="M317.71,419.52c.2-1-.5-2.42,1.35-2.53,2-.12,1.51,1.5,1.86,2.43a5.87,5.87,0,0,1,.06,1.68,1.25,1.25,0,0,1-1.32,1.45,1.64,1.64,0,0,1-1.77-1.22A8.55,8.55,0,0,1,317.71,419.52Z"/><path class="a" d="M364.5,448.19a26.84,26.84,0,0,1,9.36,1.26c1.15.34,2.16.93,2.14,2s-1.15,1.45-2.2,1.79a33,33,0,0,1-3.61.95,14.13,14.13,0,0,0-5.41,2.56l-1.58-.2c-1.9-.26-3.53-.85-4-2.39-.58-1.75.55-3,2.19-4.18C362.34,449.32,363.84,449.18,364.5,448.19Z"/><path class="b" d="M469.17,393.62c.32,1.25-.74,1.78-2,2.29a3.32,3.32,0,0,1-3.47-.58,42.56,42.56,0,0,0-6.57-4.26c-2.28-1.32-3.16-2.79-2.54-4.13s3.5-2.34,4.95-1.29c2.73,2,6.11,3.36,8.61,5.54A2.57,2.57,0,0,1,469.17,393.62Z"/><path class="b" d="M522.15,406.7c-1.24.85-2.38.43-3.61-.17a1.86,1.86,0,0,1-1.13-2.57,26,26,0,0,0,1.41-6.5c.31-2.16,1.51-3.5,3.33-3.78,2-.31,4.43,1.09,4,2.59-.83,2.81-.64,5.73-1.8,8.49A3.33,3.33,0,0,1,522.15,406.7Z"/><path class="e" d="M570.25,428.11a29.37,29.37,0,0,0,4-8.54c2.06-6.3,2.45-12.81,2.41-19.38a18.79,18.79,0,0,0,5.65-3c.71,1,.58,2.23.71,3.37.06,2.13-.38,4.29.38,6.38-.31,3-.63,5.93-1,8.9-.47,2.47-.95,4.94-1.42,7.41-1.61,6.9-5,12.6-11.34,16.16-.82.45-1.72.77-2.58,1.16a44.7,44.7,0,0,1-22.88,0c-6.29-1.62-11.2-5.06-13-11.93-.44-1.6-.17-3.55-1.54-4.89-.61-2.87-1.3-5.72-1.82-8.6-1.16-6.51-2.32-13-1.07-19.65a4.45,4.45,0,0,1,.47-1.05,13.58,13.58,0,0,0,5.77,5.31c-.18,2.47,1.79,4.52,1.39,7-2,1.27-.25,1.54.53,2.08.71,4.29,1.25,8.62,2.18,12.86,1.29,5.88,4.43,10.36,10.11,13a24.25,24.25,0,0,0,11.74,2.39c.46.66.22,1.66.92,2.27,1.25-.87.81-2.28,1.4-3.26,1.88-.33,3.11-2,5-2.4"/><path class="f" d="M529.59,423.73c1.37,1.34,1.1,3.29,1.54,4.89,1.85,6.87,6.76,10.31,13,11.93a44.7,44.7,0,0,0,22.88,0c-1.92,2.73-5.1,3.45-7.9,4.49a67,67,0,0,1-23.87,4c-4.73,0-9.56-.41-13.6-3.56a7.59,7.59,0,0,1-2.78-8.67c1.39-4.63,4.58-7.94,8.05-11C527.79,425,528.71,424.41,529.59,423.73Z"/><path class="g" d="M532.94,399.74a13.58,13.58,0,0,1-5.77-5.31c-.16-2.45,1.55-2.91,3.41-3.22l1,.6c-.6.56-1.91.39-1.87,1.41s1.29,1.22,2.1,1.55a33.15,33.15,0,0,0,3.56,1.06c1.58.19,3.17.31,4.74.57a103,103,0,0,0,36.84-.63c1-.87,3.76-.84,1.77-3.15a5,5,0,0,0-3.14-1.45c-4.1-.33-8.15-1.33-12.3-1.06-.57,0-1.46.44-1.76-.74,2.5-.45,5.05-.28,7.41-1.16,1.72.94,3.6,0,5.38.47,1.3.33,2.68.32,4,.64,4.41,1.1,5.44,3.2,4,7.85a18.79,18.79,0,0,1-5.65,3,83.06,83.06,0,0,1-16.5,2C551,402.19,541.83,402.43,532.94,399.74Z"/><path class="g" d="M583.35,406.92c-.76-2.09-.32-4.25-.38-6.38,3-.52,6-1.21,9.15-1.47,4.36-.36,8.1,1.28,9.62,4.33,1.69,3.38.94,8.42-1.7,11.43a20.1,20.1,0,0,1-7.65,5.16A36.89,36.89,0,0,1,581,423.23q.72-3.71,1.43-7.41a29,29,0,0,0,9-3.08,10.06,10.06,0,0,0,4.74-5.5c.87-2.39.27-3.25-2.29-3.27C590.08,403.94,586.81,405.75,583.35,406.92Z"/><path class="d" d="M568.94,388.21c-2.36.88-4.91.71-7.41,1.16.3,1.18,1.19.77,1.76.74,4.15-.27,8.2.73,12.3,1.06a5,5,0,0,1,3.14,1.45c2,2.31-.81,2.28-1.76,3.15-.2-2.69-2.57-2.19-3.94-2.19-11.93,0-23.89-.76-35.78.91-.89.12-1.82.1-1.87,1.34a33.15,33.15,0,0,1-3.56-1.06c-.81-.33-2.06-.41-2.1-1.55s1.27-.85,1.87-1.41l-1-.6c7.36-2.36,15-3.06,22.62-3.34,4.63-.17,9.28,0,13.91,0A2.51,2.51,0,0,1,568.94,388.21Z"/><path class="h" d="M566.18,433.75c-1.86.38-3.09,2.07-5,2.4-.26-3.84-1.48-7.15-5-9.21-1.47-.86-1.1-1.64.16-2.38a7,7,0,0,1,2.45-.87,20,20,0,0,0,6.52-2.24,6.06,6.06,0,0,0,3.19-5.24c.34-4.79-3.12-7.5-7.31-8.24a60.6,60.6,0,0,0-16.18-.92,42.84,42.84,0,0,1-10.68-.28c.4-2.51-1.57-4.56-1.39-7,8.89,2.69,18,2.45,27.17,2.44a83.06,83.06,0,0,0,16.5-2c0,6.57-.35,13.08-2.41,19.38a29.37,29.37,0,0,1-4,8.54"/><path class="h" d="M558.89,437.14a24.25,24.25,0,0,1-11.74-2.39c-5.68-2.68-8.82-7.16-10.11-13-.93-4.24-1.47-8.57-2.18-12.86,2.45.39,5,.14,7.36.59,2.73.53,5.63-.4,8.2,1.05-.78,1.54-2.56,1.76-3.73,2.82-2,1.75-3.28,3.76-2.6,6.47.6,2.39,2.54,3.31,4.79,3.71l1.87.31c-.69,2.39,0,4.06,2.31,5.22C556.35,430.71,558.87,433.05,558.89,437.14Z"/><path class="g" d="M558.89,437.14c0-4.09-2.54-6.43-5.83-8.12-2.26-1.16-3-2.83-2.31-5.22a15.38,15.38,0,0,1,6.42-4,32.81,32.81,0,0,0,4.28-1.48c1.24-.52,2.57-1.11,2.6-2.77s-1.17-2.61-2.53-3.13a25,25,0,0,0-11.1-2c-2.57-1.45-5.47-.52-8.2-1.05-2.37-.45-4.91-.2-7.36-.59-.78-.54-2.57-.81-.53-2.08a42.84,42.84,0,0,0,10.68.28,60.6,60.6,0,0,1,16.18.92c4.19.74,7.65,3.45,7.31,8.24a6.06,6.06,0,0,1-3.19,5.24,20,20,0,0,1-6.52,2.24,7,7,0,0,0-2.45.87c-1.26.74-1.63,1.52-.16,2.38,3.55,2.06,4.77,5.37,5,9.21-.59,1-.15,2.39-1.4,3.26C559.11,438.8,559.35,437.8,558.89,437.14Z"/><path class="i" d="M535.38,395.83c0-1.24,1-1.22,1.87-1.34,11.89-1.67,23.85-.87,35.78-.91,1.37,0,3.74-.5,3.94,2.19a103,103,0,0,1-36.85.63C538.55,396.14,537,396,535.38,395.83Z"/><path class="f" d="M8.06,364.06c5.86-1.18,10,1.84,13.9,5.59,3.14,3,6.17,6.2,9.5,9s6.8,5.17,10.32,7.6c6.74,4.66,13.46,9.35,20.37,13.73a12,12,0,0,1,4.92,5.79c2.31,5.55,7,8.74,12.13,11.3a2,2,0,0,0,1.31.13c3.78-.91,7.58-1.85,10.71-4.31s6.64-3.56,10.31-4.47A228.86,228.86,0,0,0,130,399.88a148.76,148.76,0,0,0,25.07-12.17c6.82-4.29,13.49-8.8,20.24-13.2a6,6,0,0,1,1-.43c-1.39,3.58-3.83,6.47-6.18,9.42-7.37,9.28-16.44,16.6-26.37,23a89.22,89.22,0,0,1-23.59,10.87c-5.22,1.5-10.62,2.17-16,3-7,1.13-14,2.07-20.29,5.89a35.72,35.72,0,0,1-10,4.21c-4.75,1.15-8.21-.84-11.27-4.07a46.73,46.73,0,0,1-5.1-7.18c-2.89-4.53-7.14-7.66-11-11.25-2.37-2.23-4.66-4.56-7-6.79-5.83-5.47-11.3-11.35-18-15.78-2.88-1.9-5.81-3.72-8.77-5.49a28.92,28.92,0,0,1-6.16-5.18c-2.8-2.94-2.77-6.26.06-9.11C7.15,365.13,7.59,364.58,8.06,364.06Z"/><path class="j" d="M55.92,323.88c1.23-.64,2.5-1.23,3.7-1.93a182.66,182.66,0,0,1,17-8.49,43.67,43.67,0,0,1,5.27-2c.49-.14,1-.37,1-1q6.19-1.06,12.27-2.69c1.42.72,3,.43,4.49.65a109.38,109.38,0,0,1,15.78,3.75c5.22,1.6,10.44,3.24,15.51,5.26a117,117,0,0,1,15.11,6.83c3.65,2.09,6.9,4.72,10.42,7a1,1,0,0,1,.5.77c-.32.11-1,.18-.48.67,1.73,1.71,3.09,3.8,4.88,5.4,3.86,3.44,7.95,6.64,12,9.87,2.7,2.16,5.5,4.19,8.25,6.28,1.15.88,1.68,1.57.05,2.73-1.94,1.38-4,2.52-5.89,4-5.78,4.55-12.46,7.5-18.94,10.79-3.41,1.73-6.9,3.28-10.42,4.8-5.16,2.22-10.12,4.92-15.3,7.1-5.93,2.5-11.74,5.31-17.9,7.28a106.73,106.73,0,0,1-12.82,3.69c-5.72,1.06-11.36,2.48-15.5,7.11a2.16,2.16,0,0,1-3.63-.05c-.79-.93-1.64-1.81-2.48-2.7-1.44-1.53-2.32-3.55-4.07-4.8-4-2.82-8-5.43-12.15-8-5.67-3.54-11.52-6.79-17-10.7-5.93-4.23-12.36-7.78-18.49-11.74a22,22,0,0,1-6.2-5.38c-.36-.51-.63-.88-.11-1.5,2.38-2.84,4.65-5.79,7.08-8.58,4.7-5.38,10.63-9.44,15.64-14.5a54.87,54.87,0,0,1,8.1-6.45C53.16,326.28,55,325.65,55.92,323.88Zm-2.66,37.4a15.61,15.61,0,0,1,2.1,1.34c1.66,1.44,3.26,1.14,4.91,0,.85-.57,1.76-1,2.61-1.62A169.14,169.14,0,0,1,86.69,347,62.66,62.66,0,0,1,104,341.59c.4-.06.89-.51,1.18.11s-.12.89-.37,1.23a12.67,12.67,0,0,1-4.72,3.84c-6.92,3.36-13.89,6.62-20.46,10.64-3.72,2.26-7.55,4.36-11.15,6.79-3.2,2.16-2.83,5.08.62,6.75.34.17.7.31,1,.47,1.73,1.26,3.15,3,5.39,3.45.13.29.18.67.4.84,2,1.62,4.52,2.63,6.51,4.37.48.41,1.2.2,1.79-.23,4.28-3.13,9.25-5.07,13.88-7.58,6.77-3.66,13.39-7.64,20.36-11a69,69,0,0,0,9.67-5.41c4.67-3.21,9.52-6.07,12.72-11.1,2.24-3.51,1.07-9.64-1.28-11.88a38.47,38.47,0,0,0-14.1-8.47A43.87,43.87,0,0,0,112.61,322a55,55,0,0,0-14.47,1.16,84.91,84.91,0,0,0-11.8,3.27c-4.78,1.84-9.63,3.51-14.24,5.83-4,2-8.15,3.84-12,6.14a101.66,101.66,0,0,0-9.45,6.39c-2.89,2.18-5.18,4.92-7.75,7.4-.51.49-.8,1.25-.14,1.67,1.6,1,2.81,2.59,4.67,3.23C49.14,358.81,51.36,359.82,53.26,361.28Zm45.72,24c2.38,0,4.33-1.51,4.42-3.22a1.81,1.81,0,0,0-1.89-2.13c-2.12-.15-5.08,1.73-4.91,3.14S97.42,385.5,99,385.25Zm-8.06-70.59c-2.3,0-3.79,1.15-3.7,2.87a2,2,0,0,0,2.23,2.1c2.07,0,3.86-1.43,3.9-2.94C93.39,314.89,92.26,314.57,90.92,314.66Z"/><path class="k" d="M55.92,323.88c-.89,1.77-2.76,2.4-4.24,3.41a54.87,54.87,0,0,0-8.1,6.45c-5,5.06-10.94,9.12-15.64,14.5-2.43,2.79-4.7,5.74-7.08,8.58-.52.62-.25,1,.11,1.5a22,22,0,0,0,6.2,5.38c6.13,4,12.56,7.51,18.49,11.74,5.47,3.91,11.32,7.16,17,10.7,4.12,2.57,8.2,5.18,12.15,8,1.75,1.25,2.63,3.27,4.07,4.8.84.89,1.69,1.77,2.48,2.7a2.16,2.16,0,0,0,3.63.05c4.14-4.63,9.78-6.05,15.5-7.11a106.73,106.73,0,0,0,12.82-3.69c6.16-2,12-4.78,17.9-7.28,5.18-2.18,10.14-4.88,15.3-7.1,3.52-1.52,7-3.07,10.42-4.8,6.48-3.29,13.16-6.24,18.94-10.79,1.86-1.46,3.95-2.6,5.89-4,1.63-1.16,1.1-1.85-.05-2.73-2.75-2.09-5.55-4.12-8.25-6.28-4-3.23-8.13-6.43-12-9.87-1.79-1.6-3.15-3.69-4.88-5.4-.49-.49.16-.56.48-.67,4.18,2.58,8.35,5.17,12.43,7.92,6,4,11.55,8.54,17.22,12.92,2.33,1.8,4.8,1.38,7.2,1.93,3.63.83,7.33,1.5,9.59,4.95,1,1.54.43,2.9-1.29,3.57-2.54,1-5.25,1-7.88,1.38a16.47,16.47,0,0,0-5.59,1.86,113.67,113.67,0,0,0-12.4,7.56,6,6,0,0,0-1,.43c-6.75,4.4-13.42,8.91-20.24,13.2A148.76,148.76,0,0,1,130,399.88a228.86,228.86,0,0,1-28.46,8.54c-3.67.91-7.25,2.06-10.31,4.47s-6.93,3.4-10.71,4.31a2,2,0,0,1-1.31-.13c-5.16-2.56-9.82-5.75-12.13-11.3A12,12,0,0,0,62.15,400c-6.91-4.38-13.63-9.07-20.37-13.73-3.52-2.43-7.05-4.86-10.32-7.6s-6.36-6-9.5-9c-3.88-3.75-8-6.77-13.9-5.59a7.19,7.19,0,0,1-2.82-.51,3.23,3.23,0,0,1-1.6-5c2.28-3.65,5.84-5.48,9.72-6.79a42.2,42.2,0,0,1,5.23-1.21c2-.41,3.21-1.84,4.41-3.23a85.34,85.34,0,0,1,15.73-14.22A67.83,67.83,0,0,1,55.92,323.88Z"/><path class="l" d="M47.41,357.11c-1.86-.64-3.07-2.22-4.67-3.23-.66-.42-.37-1.18.14-1.67,2.57-2.48,4.86-5.22,7.75-7.4a101.66,101.66,0,0,1,9.45-6.39c3.87-2.3,8-4.12,12-6.14,4.61-2.32,9.46-4,14.24-5.83a84.91,84.91,0,0,1,11.8-3.27A55,55,0,0,1,112.61,322a43.87,43.87,0,0,1,12.92,2.43,38.47,38.47,0,0,1,14.1,8.47c2.35,2.24,3.52,8.37,1.28,11.88-3.2,5-8,7.89-12.72,11.1a69,69,0,0,1-9.67,5.41c-7,3.32-13.59,7.3-20.36,11-4.63,2.51-9.6,4.45-13.88,7.58-.59.43-1.31.64-1.79.23-2-1.74-4.46-2.75-6.51-4.37-.22-.17-.27-.55-.4-.84.66-.79,1.8-.61,2.54-1.23,4-3.38,9-5.26,13.45-7.89,2.74-1.6,5.73-2.77,8.44-4.4a101.88,101.88,0,0,0,12.69-8.47A43,43,0,0,0,123,339.53a4.43,4.43,0,0,0-1-5.48,12.77,12.77,0,0,0-5.48-3.06c-5.54-1.63-11.21-1.14-16.73,0a75.52,75.52,0,0,0-17.39,6.3c-6.82,3.36-13.83,6.36-20.41,10.26C58,350,54,352.58,50,355,49.06,355.48,47.8,355.85,47.41,357.11Z"/><path class="k" d="M47.41,357.11c.39-1.26,1.65-1.63,2.55-2.16,4.07-2.37,8-5,12.06-7.36,6.58-3.9,13.59-6.9,20.41-10.26A75.52,75.52,0,0,1,99.82,331c5.52-1.18,11.19-1.67,16.73,0a12.77,12.77,0,0,1,5.48,3.06,4.43,4.43,0,0,1,1,5.48,43,43,0,0,1-10.28,13.35A101.88,101.88,0,0,1,100,361.35c-2.71,1.63-5.7,2.8-8.44,4.4-4.48,2.63-9.41,4.51-13.45,7.89-.74.62-1.88.44-2.54,1.23-2.24-.45-3.66-2.19-5.39-3.45a2,2,0,0,1,1-2A123.4,123.4,0,0,1,90.38,357.6c8-3.77,15.77-7.87,22.63-13.5,1.32-1.09,2.55-2.48,2.5-4.33-.07-2.15-2.25-3.83-4.73-3.9-7.79-.22-15,2.41-22.16,4.91-6,2.12-11.56,5.52-17.16,8.68-5.91,3.33-11.39,7.34-17.25,10.73-.41.23-1,.42-1,1.09C51.36,359.82,49.14,358.81,47.41,357.11Z"/><path class="i" d="M53.26,361.28c0-.67.54-.86,1-1.09,5.86-3.39,11.34-7.4,17.25-10.73,5.6-3.16,11.12-6.56,17.16-8.68,7.15-2.5,14.37-5.13,22.16-4.91,2.48.07,4.66,1.75,4.73,3.9,0,1.85-1.18,3.24-2.5,4.33-6.86,5.63-14.66,9.73-22.63,13.5a123.4,123.4,0,0,0-19.21,11.85,2,2,0,0,0-1,2c-.35-.16-.71-.3-1-.47-3.45-1.67-3.82-4.59-.62-6.75,3.6-2.43,7.43-4.53,11.15-6.79,6.57-4,13.54-7.28,20.46-10.64a12.67,12.67,0,0,0,4.72-3.84c.25-.34.6-.76.37-1.23s-.78-.17-1.18-.11A62.66,62.66,0,0,0,86.69,347,169.14,169.14,0,0,0,62.88,361c-.85.57-1.76,1.05-2.61,1.62-1.65,1.11-3.25,1.41-4.91,0A15.61,15.61,0,0,0,53.26,361.28Z"/><path class="m" d="M392.86,54.23c21.77-2.34,45.16,3.2,67.22,15.16,6.44,3.5,6.4,3.4,2.22,9.48-1.26,1.82-2.38,1.84-4.17.91C414.89,53.13,360.77,64,319.45,89.05c-35.24,20.1-51.91,60.85-54,99.94-.63,2.22.52,9.28-1.1,9.94-2.51.72-8.1,1.77-6.74-2.56C256.58,112.12,311.09,62.73,392.86,54.23Z"/><path class="n" d="M397.7,70.52c13.31-2,40.44,5,56.6,16,1.4.78,1.91,1.57.71,3-1.65,1.93-2,5.61-4.28,6-21.07-12.18-44.52-18.18-69-13-36.94,6.46-73,29.71-84.17,67C292.71,164,290,179,286.49,193.87a6.06,6.06,0,0,1-7.19,4.42C286.61,124.1,315.45,78.19,397.7,70.52Z"/><path class="m" d="M385,98.43c21.84-1.7,42.39,7,56,24.28,2.74,2.9-1.09,5.08-2.17,7.68s-2.29,1.86-3.95.44c-13.35-13-29.94-23.81-49.39-22.74-32.09.28-50.63,29-61.06,55.87-3,9-1.35,20.55-5.69,28.43-13.81,3.81-6.35,1.63-6.49-13.58C318,140.69,343.52,101.43,385,98.43Z"/><path class="m" d="M332.14,17.76c3.31,1.63,4.73,10.24,6.74,13.82.2,3.77,8.11,9.18,2.94,11.46-3.79.4-9.25,7.13-11.95,2.65C319.11,22,313.62,28.06,332.14,17.76Z"/><path class="m" d="M251.74,116.39c-1.57,1.68-3,10.31-6,8.71-7.42-4.07-14.69-8.41-22.35-12-3.3-2.27,4-8.72,4.74-11.93.87-1.59,1.75-1.53,3-.56,6.34,4.66,12.49,9.59,19.2,13.72C251,114.72,251.88,115,251.74,116.39Z"/><path class="n" d="M278.37,54.93c4.7,5.73,7.88,13.36,13,19.13.83,1.09,1.07,1.94-.25,3-3.07,1.26-6.4,8.48-9.64,5.06C267,64.37,259.65,70.62,278.37,54.93Z"/><path class="m" d="M444.68,13.72c-3.36,6.54-7.7,12.67-10.19,19.68a1.46,1.46,0,0,1-2.14.91c-2.75-2-10.37-.45-9.59-5.12,2.44-4,6.59-24.43,12.22-21.4C438.06,9.83,443.05,10,444.68,13.72Z"/><path class="n" d="M387.21,19.54c.78,12.29,4.25,13.09-9.82,13.69-4.69.51-3.48-18.86-5.11-23.12.51-3.9,8.29-1.65,11.31-2.95,4.65-.6,2.29,9.28,3.5,12.39Z"/><path class="n" d="M472.27,22.09c14.28,8.81,10.44,6.22,3,19.23-2.91,4.44-7.2-2.62-10.25-4-1.09-.82-1.5-1.6-.68-3C467.26,30.64,468.28,24.57,472.27,22.09Z"/><path class="n" d="M209.26,160c-5.58-.66-.66,11.89-1.41,15.5-4.34,7,23.11-.8,27.37.78,1.55,0,1.69-1,1.69-2.17-.82-4.72,3.16-12.87-4.41-12.24C208,160,209.26,160,209.26,160Z"/><path class="o" d="M362.49,192.83a17.21,17.21,0,0,0,.55,6.77c3.26.65,6.49.09,9.72-.23,4.81,1.55,15.42,12.63,27.74,12.63,16.84,0,30.5,8,30.5,5.5,0-1,3.87-10.75,0-11.5l-1.85-1.6c0-4.53-.1-9.07-.51-13.59-.25-.93.36-.81-.54-2.83-.15-.46-.33-.9-.44-1.37-1.44-6.63-3-13.19-6.13-19.32-5.39-10.69-13.42-17.95-25.53-19.94-4.42-.72-8.73-.33-11.76,3.53,0,0-11.24,4.12-16.37,21.92C366.44,177.78,362.49,192.83,362.49,192.83Z"/><path class="l" d="M445,216.47c4.46-4.82,13.44-27.59,10.76-33.73-.95-2.21-3.17-3.43-4-5.77-1.19-1.87-2.21-2.29-1.26-4.94-5.27-3.73-6-7.85-9.78-4.14-10.54,10-3.94,23.89-23.74,23.85-48.4,2.49-50.48-.85-78.93,9.07,2,7.33-.31,27.19,1.93,27.19,2,0,12-1,16.43-2.33l5.63-.86A26.89,26.89,0,0,0,360.87,237c-1.1,7-7.28,21.49,3.29,23,8.52-.92,17.58.92,26.31-.9,7.85-1,25.17-.5,39.89-1.56,11.39-.94,5.64-4.54,24.53-1.44,1.54.25.3-2.43-.15-3.47-4.92-11.23-7-23.28-9.69-35.17"/><path class="p" d="M433.18,260.85c-1.16-.68-2.44-.07-3.64-.09-6.54-.07-13.09,0-19.63,0-5.66,0-11.29.23-16.92.58a81.78,81.78,0,0,1-11.18-.4,39.05,39.05,0,0,0-4-.14c-3.43-.77-7-1-10.55-1.61l-3.92-.62a7.75,7.75,0,0,1,3.94-.24,147.93,147.93,0,0,0,22.38-.32c2.61-.19,5.23-.26,7.85-.38l8-.3c1.56-.45,3.28.24,4.83-.27l19.18,0c2.16.11,4.18-.08,5.61-1.28,5-4.16,10.5-2.79,15.84-.79,1,.39,2,.81,3.09,1.16.16,1.41-.91,1.94-3,1.9a41.21,41.21,0,0,1-5.37-.56c-2.43-.37-4.69-.34-6.39,1.15C437.78,259.89,435.09,259.94,433.18,260.85Z"/><path class="p" d="M449.27,173.46a14.9,14.9,0,0,1,4.27,3.31c2.54,2.49,5.41,4.64,7.62,7.47.47.6,1,1.31,1.9,1.27.3,2.07,1.69,3.59,2.92,5.07a3.39,3.39,0,0,1,0,4.75A73.31,73.31,0,0,1,446.68,213c-1,.64-2.21,1.34-2.48,2.75-3.95,1.84-4.36,5.8-5.48,9.3a28,28,0,0,1-1.4,4.1c-1.49-1.08-.79-2.58-1.13-3.79-1.71-6.08.51-10.85,4.78-15,1.67-1.63,3.19-3.39,5-4.95-.14,2.49-2.26,4.15-2.49,6.94a16.59,16.59,0,0,0,6-7.29c1.5-3.75,3-7.5,4.23-11.35s1.91-7.72.18-11.64c-.94-2.14-3.17-3.33-4-5.6C449.58,175.44,449,174.56,449.27,173.46Z"/><path class="h" d="M403.62,217.51a8.49,8.49,0,0,1-1.49,5.65,29.85,29.85,0,0,1-8,8.42,7.38,7.38,0,0,1-4.47,1.43c-3.34-1.87-4.23-4.44-2.85-8a25.18,25.18,0,0,1,3.93-6.52,5.77,5.77,0,0,1,3.56,1.28,27.35,27.35,0,0,0-3.81,6.55c-.17.44-.38.95,0,1.33s.9.09,1.24-.25c2.42-2.37,5.12-4.51,6.55-7.72C400.1,219,401.68,217.78,403.62,217.51Z"/><path class="h" d="M406.7,243.6c-2.18-1.8-2.95-4.49-4.4-6.75a13.45,13.45,0,0,1,.17-4.93c.44-1.39,1.11-2.21,2.57-2.33a6.3,6.3,0,0,1,4.83,4.15,14.61,14.61,0,0,1,.68,8.66"/><path class="e" d="M372.16,252.8a19.59,19.59,0,0,1-5.43-8.55c-.59-1.61,0-3.17.46-4.63s2.72-1.69,4.33-.53a11.9,11.9,0,0,1,3.56,4.71c.45.92.88,1.85,1.32,2.77,0,1,.1,2.08.08,3.11C376.44,252.67,375.14,253.6,372.16,252.8ZM370,242a9.85,9.85,0,0,0,3.29,7.12A9.53,9.53,0,0,0,370,242Z"/><path class="e" d="M423.16,212.8a19.59,19.59,0,0,1-5.43-8.55c-.59-1.61,0-3.17.46-4.63s2.72-1.69,4.33-.53a11.9,11.9,0,0,1,3.56,4.71c.45.92.88,1.85,1.32,2.77,0,1,.1,2.08.08,3.11C427.44,212.67,426.14,213.6,423.16,212.8ZM421,202a9.85,9.85,0,0,0,3.29,7.12A9.53,9.53,0,0,0,421,202Z"/><path class="e" d="M354.64,206.78a12.65,12.65,0,0,1-.75,3.22c-1.2,2.78-3.33,3.38-6,2.94-2.47-2.32-3-5.29-2.78-8.5.12-1.47.78-2.85,2.43-2.66s1.8,1.5,1.42,3a7,7,0,0,0,.71,4.47c1.48-1.48,1.4-3.17,1.37-4.84a15.3,15.3,0,0,1-.14-1.65,1.71,1.71,0,0,1,1.48-1.64c1-.19,1.4.39,1.75,1.22C354.71,203.76,354.44,205.29,354.64,206.78Z"/><path class="e" d="M374.75,209.87c1.63.24,3.53.06,3.78,2.44-1.84,1.74-3.56,3.62-5.9,4.74-2.83,1.37-5.59.8-6.9-1.5a4.72,4.72,0,0,1,.22-5c.67-1.16,1.5-2.24,2.26-3.35a2.82,2.82,0,0,1,2.85.9c-.46,1.46-2.05,2.24-2.32,3.84-.09.55-.4,1.12.09,1.57s1.17.23,1.76-.09A23,23,0,0,0,374.75,209.87Z"/><path class="h" d="M405.49,255.1l-8,.45a13.7,13.7,0,0,1,2.7-8.19,3.24,3.24,0,0,1,4-1.16,3.56,3.56,0,0,1,2.29,3.33A12.49,12.49,0,0,1,405.49,255.1Z"/><path class="e" d="M440.63,189.69a18.74,18.74,0,0,1-.06-8.46,4.07,4.07,0,0,1,3.37-3.28c1.75-.25,3,.64,3.95,2.1,2.53,3.8,3.32,7.8,1.78,12.17a1.43,1.43,0,0,0-.52,1.47v-.05c-4,1.88-5.41,1.43-7.58-2.34Zm6.13-2.05a7,7,0,0,0-1.5-4.7,1.43,1.43,0,0,0-1-.55c-.57,0-.67.57-.75,1.05a12.18,12.18,0,0,0,.53,4.49c.18.95.59,2.55,1.5,2.46C446.77,190.28,446.68,188.72,446.76,187.64Z"/><path class="e" d="M435.58,243.36c-2.7.57-4.84-.09-5.43-1.68-.72-2,.61-5.54,2.57-6.45,2.6-1.21,5.3-2.14,8.26-1.59,3.67,4.09,1.33,11.73-5,14.36"/><path class="e" d="M439.54,237.45a1.33,1.33,0,0,0-1.5-.81,5.06,5.06,0,0,0-3,1.31c-.66.63-1.92,1.28-1.48,2.2.55,1.17,1.65,0,2.49-.1a5.64,5.64,0,0,0,2.87-1.6C439.2,238.19,439.54,238,439.54,237.45Z"/><path class="d" d="M376.78,201.94c3.52,0,5.37,2.72,4.08,5.53-.26.56-.47,1.35-1.32,1-.69-.28-1.83-.43-1.67-1.43.4-2.5-1.37-2.06-2.51-1.72-1.59.47-3.82.4-4-.64-.22-1.46,2-1.91,3.38-2.34A15.94,15.94,0,0,1,376.78,201.94Z"/><path class="d" d="M435.7,199.9c2.79,2.14,2.6,5.43-.14,6.87-.55.29-1.19.79-1.65,0-.38-.64-1.19-1.46-.45-2.15,1.84-1.74.17-2.47-.94-2.89-1.55-.6-3.28-2-2.76-2.93.72-1.29,2.71-.32,4.1.21A18.86,18.86,0,0,1,435.7,199.9Z"/><path class="q" d="M254.21,334.83c-1.68-3.16.44-5.54,1.65-8.11,1.59-1.78,3.07-3.67,4.79-5.32a24.45,24.45,0,0,1,17.12-6.85,61.18,61.18,0,0,1,12.16.84,29.58,29.58,0,0,0,5.49.24c16.28-.14,32.56,0,48.82.95,2.15.13,4.27.64,6.43.4a30,30,0,0,1,10.15,5.42,8.06,8.06,0,0,0,1.93.87l.52.48h0c0,.68.5.93,1,1.19,2.77,1.38,5.52,2.81,8.31,4.15,5.58,2.67,10.65,6.23,16.13,9.07,2.75,2.88,6.29,4.75,9.38,7.2,3.43,2.72,7,1.79,9.54-1.79.23-.32.6-.56.77-.9,1.36-2.63,4-4.3,5.29-6.95,1.61-1.53,3.22-3.05,4.82-4.59a63.81,63.81,0,0,1,21.29-13.77c.6-.24,1.19-.5,1.3-1.25a4.88,4.88,0,0,0,2.9-.58,204.33,204.33,0,0,1,30.55-4.35c8.13-.58,16.12-2.22,24.16-3.54s16.16-2.15,24.22.22a29.26,29.26,0,0,1,7.83,3.54c-.11,2.51-2.12,2.65-3.79,2.67a49.13,49.13,0,0,1-7.85-.58c-7.23-1.09-14.42-1.51-21.52.69-2.12.65-4.34,1.24-5.93,3.1,1.45-.17,2.86-.23,4.27-.28,4.22-.12,8.44.14,12.67-.35a16.69,16.69,0,0,1,8.79,1.86c.72.33,1.46.86,1.27,1.82s-1.09.94-1.9,1c-2.1.2-4.12-.54-6.19-.48-4.78.14-9.56.09-14.35.34A106.76,106.76,0,0,0,466.62,327a71.37,71.37,0,0,0-22.35,13c-6.62,5.51-13.16,11.07-21.17,14.54-5.3,2.29-10.73,3.06-16.27,1.2-4.06-1.37-8-3.12-12-4.61A11.14,11.14,0,0,0,388,351c-.49.13-1.3-.1-1.42.61s.72,1,1.25,1.2c3.72,1.65,7.4,3.41,11.2,4.84,8.13,3.05,16.37,4.89,25.21,3.23a16.87,16.87,0,0,1,11,1.18,24.91,24.91,0,0,0,19.92,1.28c7.29-2.47,14.87-2.4,22.31-3.58,1.38-.22,2.56,0,3,1.61-.25,1.71-1.53,3.46.24,5.1.13.12-.14.62-.08.9.53,2.22,1,4.41-1.56,5.8,0,0,0,.16,0,.23-1,3.28-1.1,3.35-4.38,3-.82-1.41-1.55-2.78-.23-4.36.5-.6-.11-1.17-.46-1.7a8.18,8.18,0,0,1-.92-7c.51-1.74.12-1.79-1.17-1.62a61.63,61.63,0,0,0-13.68,3.09c-7.37,2.75-14.84,4.62-22.56,1.51A22.11,22.11,0,0,0,423.51,365c-11.54,1.85-22.21-.9-32.53-6-6.36-3.14-12.21-7.23-18.76-10-7.07-2.95-14.53-4.73-21.91-6.66-10.15-2.64-20.26-5.49-30.71-6.82a5.71,5.71,0,0,1-3.71-1.35,40,40,0,0,0-16.79-9.7c-1-.31-2.09-1-3.77-.35a32,32,0,0,1,13.07,9.27,72.12,72.12,0,0,1-11.84-2.23c-6.53-1.71-12.62-4.9-19.41-5.73-7.15-.88-13.58.49-19,5.59C256.86,332.34,256,334.09,254.21,334.83Z"/><path class="r" d="M480.49,361.34c-.46-1.57-1.64-1.84-3-1.62-7.44,1.18-15,1.11-22.31,3.58A24.91,24.91,0,0,1,435.24,362a16.87,16.87,0,0,0-11-1.18c-8.84,1.66-17.08-.18-25.21-3.23-3.8-1.43-7.48-3.19-11.2-4.84-.53-.23-1.39-.37-1.25-1.2s.93-.48,1.42-.61a11.14,11.14,0,0,1,6.83.18c4,1.49,8,3.24,12,4.61,5.54,1.86,11,1.09,16.27-1.2,8-3.47,14.55-9,21.17-14.54a71.37,71.37,0,0,1,22.35-13,106.76,106.76,0,0,1,29.62-5.76c4.79-.25,9.57-.2,14.35-.34,2.07-.06,4.09.68,6.19.48.81-.08,1.7,0,1.9-1s-.55-1.49-1.27-1.82a16.69,16.69,0,0,0-8.79-1.86c-4.23.49-8.45.23-12.67.35-1.41.05-2.82.11-4.27.28,1.59-1.86,3.81-2.45,5.93-3.1,7.1-2.2,14.29-1.78,21.52-.69a49.13,49.13,0,0,0,7.85.58c1.67,0,3.68-.16,3.79-2.67,2.92.08,5,2.22,7.57,3.12,2.48,2.64,5.11,5.16,5.74,9a23.08,23.08,0,0,1-.87,10.28c-.65,1.19-1.27,2.39-1.94,3.56-2.26,3.88-4.93,7.37-9,9.53-1.76-.16-3.14,1-4.77,1.35-6.35,1.37-12.68,2.8-18.89,4.75-6.74,2.12-13.08,5.33-19.92,7.14-.72.19-1.17.48-1,1.3C485.27,361.94,482.88,361.46,480.49,361.34Z"/><path class="r" d="M503.32,50.21c.07,1,.13,2.06.2,3.09a17.35,17.35,0,0,0,1.68,7.05c3.31,6.4,2.4,12.86-.6,19.17A24,24,0,0,0,498,89.79c-2.63,7.92-3.2,16.15-4.08,24.33A76.35,76.35,0,0,1,490.24,132c-.62,1.73-2.18,3-2.16,5a27.6,27.6,0,0,1-5.06,6.6c-2.93,2.82-5.61,5.87-8.29,8.91-.33-2.58-1.1-3-3.4-2a15.06,15.06,0,0,0-2,1.25c-3.85,2.55-6.28,6.52-9.59,9.6-2.62,2.44-5.29,4.83-7.81,7.37-1.19,1.21-2.61,2.38-2.74,4.31-1.86-2-3.94-3.79-5.26-6.23,2.12-7.05,6.2-13.08,10.07-19.21a382.2,382.2,0,0,0,27-52c3.62-8.34,7-16.77,10.74-25.07,1.18-2.63.7-4.48-1.22-6.42a49.31,49.31,0,0,1-4.62-5.47,5.53,5.53,0,0,1-.54-5.91c1.62-3.49,3.75-6.51,7.78-7.57,2.39-.63,4.75-1.38,7.15-2,.86-.2,1.85-.67,2.63.27-1.31.16-2.1,2-3.66,1.27-1.28-.58-2.1,0-2.92.86a12.31,12.31,0,0,0-3.16,5.29c-.75,3.19-.58,6.33,2.2,8.78,2.29,2,3.66,2,5.73-.19,1.55-1.66,1.54-2.19,0-4.19a7.12,7.12,0,0,0-.66-.69c-1.12-1.09-1-2,.3-2.9A6.5,6.5,0,0,1,503.32,50.21ZM478,129.63c0,.88,0,1.76,0,2.63a2.77,2.77,0,0,0,2.53,2.73,2.85,2.85,0,0,0,3.06-2.49,13.56,13.56,0,0,0-.31-6.13,2.36,2.36,0,0,0-2.74-1.75,2.59,2.59,0,0,0-2.53,2.39A16.36,16.36,0,0,0,478,129.63Z"/><path class="q" d="M429.06,271.44a4.51,4.51,0,0,1-3.87,1.93c-12.62-.22-25.18,1.41-37.81,1-2.8-.08-4.88-.7-6.41-3a49,49,0,0,0-2.53-8,4.82,4.82,0,0,1-.28-1.57l-.11-.5c-.09-.3-.19-.59-.28-.88a26.12,26.12,0,0,1,4,.21c3.71.42,7.44,1,11.18.62,5.63-.54,11.26-.9,16.92-.89,6.54,0,13.09-.06,19.63.05,1.2,0,2.48-.91,3.64.13C431.81,264.19,430.07,267.67,429.06,271.44Z"/><path class="q" d="M449.27,173.46a2,2,0,0,0-.1-.4c.13-1.93,1.55-3.1,2.74-4.31,2.52-2.54,5.19-4.93,7.81-7.37,3.31-3.08,5.74-7,9.59-9.6a15.06,15.06,0,0,1,2-1.25c2.3-1.07,3.07-.61,3.4,2a23.37,23.37,0,0,1-2.77,9.34,123.33,123.33,0,0,0-7.77,20.52c-.31,1.07-.75,2.1-1.13,3.15-.94,0-1.43-.67-1.9-1.27-2.21-2.83-5.08-5-7.62-7.47A14.9,14.9,0,0,0,449.27,173.46Z"/><path class="q" d="M339.24,207.66c.06.94.13,1.88.19,2.83a8.51,8.51,0,0,0-.12,1.42c.38,4.36.75,8.72,1.2,13.07.11,1.06.66,2.37-.51,3a88.09,88.09,0,0,1-20.55,2.08c-2.21-.09-4.46-.08-6.54-1.07-.29-2.09,1.41-2.92,2.65-3.92a85.09,85.09,0,0,1,10.53-7.34c4.15-2.43,7.61-5.71,11.2-8.84C337.88,208.4,338.33,207.68,339.24,207.66Z"/><path class="q" d="M488.08,137c0-2,1.54-3.25,2.16-5a76.35,76.35,0,0,0,3.66-17.89c.88-8.18,1.45-16.41,4.08-24.33a24,24,0,0,1,6.62-10.27c-1.83,11-3.6,22-5.49,33a61.4,61.4,0,0,1-6.77,20.07A10.31,10.31,0,0,1,488.08,137Z"/><path class="q" d="M503.32,50.21a6.5,6.5,0,0,0-2.65,1.51c-1.33.91-1.42,1.81-.3,2.9a7.12,7.12,0,0,1,.66.69c1.58,2,1.59,2.53,0,4.19-2.07,2.23-3.44,2.21-5.73.19-2.78-2.45-2.95-5.59-2.2-8.78a12.31,12.31,0,0,1,3.16-5.29c.82-.88,1.64-1.44,2.92-.86,1.56.69,2.35-1.11,3.66-1.27l.05.14.06.75,0,1.52a6.86,6.86,0,0,0-2.76,1.25,1.21,1.21,0,0,0-.46,1.65c.42.73,1,.09,1.41-.09.74-.3,1.46-1.07,2.19,0Z"/><path class="r" d="M404.5,183c.48,2.78,4.87,18.72,5.36,21.49a17.81,17.81,0,0,1-.61,8c-12.57,14.8-21.44,2.27-21.44,2.27a14.56,14.56,0,0,0-.89-1.92c-2.8-4.37,0-13.76-.92-18.84,1.83-.3,2.24-.06,4-1,1.33-.71,6.79-.15,8,0Z"/><path class="r" d="M503.35,48.71c-.73-1.07-1.45-.3-2.19,0-.45.18-1,.82-1.41.09a1.21,1.21,0,0,1,.46-1.65A6.86,6.86,0,0,1,503,45.9,3.68,3.68,0,0,1,503.35,48.71Z"/><path class="r" d="M503,44.38l-.06-.75A.48.48,0,0,1,503,44.38Z"/><path class="r" d="M261.34,349.91c-3.29-3.24-5.1-7.29-6.39-11.62-.33-1.13-.49-2.3-.74-3.46,1.8-.74,2.65-2.49,4-3.74,5.39-5.1,11.82-6.47,19-5.59,6.79.83,12.88,4,19.41,5.73a72.12,72.12,0,0,0,11.84,2.23,32,32,0,0,0-13.07-9.27c1.68-.62,2.75,0,3.77.35a40,40,0,0,1,16.79,9.7,5.71,5.71,0,0,0,3.71,1.35c10.45,1.33,20.56,4.18,30.71,6.82,7.38,1.93,14.84,3.71,21.91,6.66,6.55,2.73,12.4,6.82,18.76,10,10.32,5.1,21,7.85,32.53,6a22.11,22.11,0,0,1,12.14,1.26c7.72,3.11,15.19,1.24,22.56-1.51a61.63,61.63,0,0,1,13.68-3.09c1.29-.17,1.68-.12,1.17,1.62a8.18,8.18,0,0,0,.92,7c.35.53,1,1.1.46,1.7-1.32,1.58-.59,2.95.23,4.36a15.6,15.6,0,0,1-2.26.72c-7.15,1.2-14.33,2.1-21.51,3-11.76,1.51-23.44.48-35.13-.43-7.31-.56-14.6-1.37-21.93-1.71-3.5-.16-7-.48-10.48-.73-.12-.93-.78-1.1-1.56-1.14-8.82-.42-17.65-.83-26.43-1.91-6.47-.79-13-1.18-19.44-2.08-8.29-1.16-16.62-1.69-24.95-2.22-9.13-.57-18.29-.61-27-4a40.37,40.37,0,0,1-13.13-7.65c-.53-.48-.9-1.32-1.89-1.18-.08,1.24,1.5,1.63,1.18,2.83l-1.25-.25c-1.15-2.1-3.33-3.24-4.75-5.11-.61-.79-1.45-1.42-1.59-2.51"/><path class="f" d="M516.2,355.28q2.73-1.09,5.39-2.42c3.65-1.8,7.93-2.54,10.67-6,4.08-2.16,6.75-5.65,9-9.53.67-1.17,1.29-2.37,1.94-3.56a66.14,66.14,0,0,1,14.36,8.94c2.39,2,4.58,4.28,5.3,7.46.84,3.74-1.85,8.06-5.81,10-8.17,4-16.91,5.9-25.82,7.25-11.21,1.69-22.41,3.47-33.61,5.26-3.52.56-4,1.09-4.23,4.75-.09,1.62-1.17,2.41-2.15,3.27-3.05,2.67-6.17,5.26-10.06,6.7a3.25,3.25,0,0,0-1.79,1.14q-7.54,2-15.26,3.35a90.79,90.79,0,0,1-16.48.37c-13.69-.6-27.23-2.22-40.25-6.87a56.66,56.66,0,0,1-7.16-2.6c-2.43-1.26-4.33.58-6.28,1.27A200,200,0,0,1,362.35,392c-7.75,1.38-15.57,2.09-23.34,3.15-4.79.66-9.66.79-14.51,1.06q-4.65.26-9.31.46c-23.81,2.26-41,6.81-60.28-1.48-3.78-1.63-6.77-4.23-7.54-8.59-.56-3.17.75-5.89,2.36-8.49a51.58,51.58,0,0,1,6-7.66,53.45,53.45,0,0,1,13.11-10.77l1.25.25c1.52,2.56,4.06,4,6.35,5.69,3.63,2.65,6.72,6.18,11.39,7.26a67.15,67.15,0,0,0,10.61,1.69c10.18.69,20.36,1.41,30.56,1.86,13.87.62,27.75,1.26,41.65,1.05,4.22-.07,8.45-.17,12.68-.25,3.49.25,7,.57,10.48.73,7.33.34,14.62,1.15,21.93,1.71,11.69.91,23.37,1.94,35.13.43,7.18-.92,14.36-1.82,21.51-3a15.6,15.6,0,0,0,2.26-.72c3.28.38,3.39.31,4.38-3,0-.07,0-.2,0-.23,2.54-1.39,2.09-3.58,1.56-5.8-.06-.28.21-.78.08-.9-1.77-1.64-.49-3.39-.24-5.1,2.39.13,4.78.61,7.19.09,2.2-.14,4.43-.14,6.62-.44A93.41,93.41,0,0,0,516.2,355.28Z"/><path class="r" d="M386.93,195.22l-6.77-11.86c-1.33-.93-2-3.85-1-7,.84-2.6.53-3.8.57-6.82a1,1,0,0,1,.14-.38c2.13-1.16,4.8-.53,7.13-1.16,2.61-.71,4.36-.4,7-1,3.6-.81,5.82-.32,7,3,.46,1.29,1.37,1.74,2,3,1,2,.86,3.2,1.74,2.49.88.14,1.67-2.75,2.35-3.33,2.71-.26,3,1.8,2.58,4.58-.14.94-.11,1.9-.16,2.85l-2.11,2.87c-1.24,1.9-.83,1.92-1.51,3-1.69,2.81-4.32,5.66-6,8.49a.8.8,0,0,1-.36.14l-.58.35a12.69,12.69,0,0,1-3.58,1.71c-3.13,1.09-5.23,1.17-6.23.17l-1.23-.14Z"/><path class="q" d="M405,175.5c-1,.5-1,.5-2-1.5-1.36-2.71-3.73-3.28-4.27-3.92a5.14,5.14,0,0,0-4.67-2.17,10.6,10.6,0,0,0-2.1.14c-2.07.33-4.14.67-6.19,1.06a10.91,10.91,0,0,0-1.25.32c-1.94.61-2.92.94-4.78-.33.26-.49,7.07-1.52,11.35-2.33,5-.93,8.31-.48,10.18,3A65,65,0,0,0,405,175.5Z"/><path class="q" d="M408.32,179c0-.87,0-1.75.13-2.61.32-2.56.1-2.88-2-2.64.08-.83.21-1.59,1.09-1.72a1.72,1.72,0,0,1,1.88,1A4.35,4.35,0,0,1,408.32,179Z"/><path class="q" d="M397.81,194.12l.59-.36Z"/><path class="q" d="M478,129.63a16.36,16.36,0,0,1,0-2.62,2.59,2.59,0,0,1,2.53-2.39,2.36,2.36,0,0,1,2.74,1.75,13.56,13.56,0,0,1,.31,6.13,2.85,2.85,0,0,1-3.06,2.49,2.77,2.77,0,0,1-2.53-2.73C478,131.39,478,130.51,478,129.63Z"/><path class="q" d="M302.65,215.33c1.4-.08,2.65.08,3,1.67a2.85,2.85,0,0,1-1.79,3.48c-1.08.47-2.18.89-3.27,1.35a2.56,2.56,0,0,1-3.48-1.11,2.37,2.37,0,0,1,.67-3.37C299.22,216.29,300.67,215,302.65,215.33Z"/><path class="s" d="M389.18,176.23c.22-1.61,2.42-3.21,5.11-3.86.54-.14,1.13-.29,1.32,0s-.39.54-.84.75A27,27,0,0,0,389.18,176.23Z"/><path class="q" d="M407.46,175.92c0,.55-.23.87-.81.83-.4,0-.73-.2-.63-.64s.31-1,.89-1S407.46,175.52,407.46,175.92Z"/><path class="s" d="M395.63,176.11c-.12-.66-.7-.65-1-.67a5.05,5.05,0,0,0-4.14,2.53.72.72,0,0,0-.06.87.52.52,0,0,0,.82,0l1-.52a1.24,1.24,0,0,0,2.35-.58,1.19,1.19,0,0,0-.14-.56l.33-.16C395.27,177,395.75,176.69,395.63,176.11Z"/><path class="q" d="M532,347.14c-2.73,3.44-7,4.18-10.66,6A89.08,89.08,0,0,1,494,361.24c-2.19.31-4.42.31-6.63.45-.16-.82.29-1.12,1-1.31,6.85-1.81,13.19-5,19.93-7.14,6.2-1.95,12.54-3.38,18.89-4.75C528.83,348.14,530.21,347,532,347.14Z"/><path class="q" d="M383.06,377.13c-4.22.08-8.45.18-12.67.25-13.9.21-27.78-.44-41.66-1.05-10.19-.45-20.37-1.17-30.56-1.86a67,67,0,0,1-10.6-1.69c-4.67-1.08-7.76-4.61-11.4-7.26-2.28-1.66-4.82-3.13-6.34-5.69.32-1.2-1.26-1.59-1.18-2.83,1-.14,1.36.7,1.89,1.18a40.42,40.42,0,0,0,13.12,7.65c8.74,3.34,17.9,3.38,27,3.95,8.33.53,16.66,1.06,24.95,2.22,6.45.9,13,1.29,19.44,2.08,8.78,1.08,17.6,1.49,26.43,1.91C382.29,376,383,376.19,383.06,377.13Z"/><path class="t" d="M439.12,294.47a113.15,113.15,0,0,1,4.35,18.69.35.35,0,0,0,0,.38l.49,2a4.88,4.88,0,0,1-2.9.58c-6.27-.3-11.64,1.88-16.46,5.77-4.46,3.6-7.52,8.62-12.2,12-.45.33-.86.85-.5,1.45s1.15.34,1.75.4c-1.32,2.65-3.93,4.32-5.29,6.95-.17.34-.54.58-.77.9-2.49,3.58-6.11,4.51-9.54,1.79-3.09-2.45-6.63-4.32-9.38-7.2a2.18,2.18,0,0,0-.88-1.62,48,48,0,0,0-7.48-6.53c-5.25-3.35-10.72-6-17.09-6.26h0l-.52-.48a8.06,8.06,0,0,1-1.93-.87A30,30,0,0,0,350.67,317a11.37,11.37,0,0,1,1.64-3.82l.36-.56-.06.08c.56-.24.55-.74.53-1.23-.11-.65.33-1.09.57-1.61,3.09-3.76,5.6-7.94,8.62-11.77,5.59-7.12,11.32-14.06,18.34-19.85,1.07-.88,1.45-.87,2.37.18,5.46,6.17,12.59,9.15,20.61,9.77,9.25.71,16.55-3.25,22.26-10.39.69-.86,1.31-1.55,1.88.17s1.47,3.51,2.07,5.3c3,8.91,3.46,18.39,6.32,27.34.31,1-.17,2.77,1.13,2.72s1.16-1.82,1.32-3a11.81,11.81,0,0,0,0-1.19,88.56,88.56,0,0,0-.7-15c-.12-.77.07-1,.76-1.12"/><path class="c" d="M438.7,293c-.69.08-.88.35-.76,1.12a88.56,88.56,0,0,1,.7,15,11.81,11.81,0,0,1,0,1.19c-.16,1.16-.1,2.93-1.32,3s-.82-1.73-1.13-2.72c-2.86-8.95-3.36-18.43-6.32-27.34-.6-1.79-1.48-3.5-2.07-5.3s-1.19-1-1.88-.17c-5.71,7.14-13,11.1-22.26,10.39-8-.62-15.15-3.6-20.61-9.77-.92-1-1.3-1.06-2.37-.18-7,5.79-12.75,12.73-18.34,19.85-3,3.83-5.53,8-8.62,11.77.25-2.44,1.82-4.33,2.73-6.5A85.85,85.85,0,0,1,364,288.39a62.86,62.86,0,0,1,17-17c1.53,2.3,3.61,2.92,6.41,3,12.63.38,25.19-1.25,37.81-1a4.51,4.51,0,0,0,3.87-1.93,60.57,60.57,0,0,1,8.71,18.67"/><path class="c" d="M413.41,335.81c-.6-.06-1.35.26-1.75-.41s0-1.12.5-1.44c4.68-3.38,7.74-8.39,12.2-12,4.82-3.89,10.19-6.06,16.46-5.77-.11.76-.71,1-1.3,1.25a63.71,63.71,0,0,0-21.29,13.77C416.63,332.76,415,334.28,413.41,335.81Z"/><path class="c" d="M363,323.59c6.38.23,11.85,2.92,17.09,6.26a47.67,47.67,0,0,1,7.49,6.54,2.16,2.16,0,0,1,.88,1.62c-5.48-2.85-10.56-6.4-16.13-9.08-2.79-1.34-5.54-2.77-8.31-4.15C363.47,324.52,363,324.27,363,323.59Z"/><path class="r" d="M212.21,216a6.09,6.09,0,0,0-4.51-1.87c-2,0-2.5,1.89-2.81,3.6a55.26,55.26,0,0,0,9.71,10.77,7.74,7.74,0,0,0,3.75,2c-.31-.79-.6-1.58-.89-2.37a2.79,2.79,0,0,0,2.58-.52,2.32,2.32,0,0,0,.29-.39,8.37,8.37,0,0,0,7.66,5.42c4.95.23,9.85-.51,14.77-.78a163.49,163.49,0,0,1,19.55,0,45.5,45.5,0,0,0,13.32-1c4.25-1,8.47-2.16,12.7-3.24a7.49,7.49,0,0,1,5.78.92c6.27.07,12.52.79,18.8.48a3,3,0,0,1,1.27-2.86,97.56,97.56,0,0,1,11.69-8.28c4.24-2.44,7.77-5.77,11.42-9,.59-.51,1-1.23,1.95-1.25a19.88,19.88,0,0,0-1-7.1q-5.06,1.41-10.1,2.84c-19.16,5.47-38.86,8-58.48,11-9.24,1.41-18.53,2.13-27.84,2.84-7.09.54-12.8-.24-16.8-3.24-1-.76-4.9-3-6.22-3.05l-9.09-2.77c-3-.51-4.83,1.53-6.74,3.14-2.59,2.17-2.48,2.51,0,5,2.31-5.23,7.38-4.61,11.14-1.6"/><path class="q" d="M203,216.3c2.31-5.23,7.38-4.61,11.14-1.6,2.18,1.74,3.11,4.19,4.07,6.64.66,1.71,1.27,3.44,1.87,5.17a8.51,8.51,0,0,0,8,6.11c4.95.23,9.85-.51,14.77-.78a164.34,164.34,0,0,1,20.34.08,41.94,41.94,0,0,0,12.53-1.07c4.25-1,8.47-2.16,12.7-3.24a7.49,7.49,0,0,1,5.78.92,30.55,30.55,0,0,0-10.68,3.35,49.85,49.85,0,0,1-23.41,5c-8.61-.17-17.23-.9-25.87-.13-6,.54-11.41-.93-15.8-5.31-1.66-4.33-3.14-8.74-5.06-12.95a6,6,0,0,0-5.59-3.45c-2,0-2.5,1.89-2.81,3.6A5,5,0,0,1,203,216.3Z"/><path class="q" d="M390.57,187.26c.8-.21.48-.38.43,0,0,.14.36.09-.13.4-.09.06,0-.23,0,0a2.27,2.27,0,0,1-.91,1,1.53,1.53,0,0,0-.6.11c-.15,0-.25-.31-.23-.44C389.26,187.77,389.91,187.43,390.57,187.26Z"/><path class="q" d="M385.26,176.77c.45-.17-.42-2.1.52.71A17.63,17.63,0,0,1,387,181.1c0,.29,1.38,4.36,2,6.1.7,2.12-.65-.75-.83-1-.41-.65-.46-.2-.46-.2-.2-.33-1.14-2.86-1.43-3.75C385,178.37,384.88,176.9,385.26,176.77Z"/><path class="s" d="M377.21,179.43a17.86,17.86,0,0,1,5.17-1c-1.18-1-3.45-.79-5.38.42"/><path class="s" d="M379.14,182.27a.67.67,0,0,1,.22-.9,4,4,0,0,1,3.75-.67.57.57,0,0,1,.49.48.4.4,0,0,1-.45.45l-.86.22a1,1,0,0,1-.3,1,1,1,0,0,1-1.39-.09,1.07,1.07,0,0,1-.21-.41l-.27.08C379.79,182.57,379.37,182.67,379.14,182.27Z"/><path class="u" d="M390.88,192.57a.44.44,0,0,1,0-.2c.19-.23,3.26-2.11,3.78-2.63,1.86-.29-2.45,2.65-3,3S391,192.85,390.88,192.57Z"/><path class="u" d="M390,191.29a.51.51,0,0,1,0-.2c.24-.18,4.79-2.36,5.43-2.75,1.95.11-4.09,3.06-4.71,3.31C390.35,191.79,390.05,191.59,390,191.29Z"/><path class="v" d="M391,191.78a.26.26,0,0,1,0-.15c.15-.13,2.39-1.14,2.79-1.45,1.28,0-1.89,1.59-2.28,1.79S391,192,391,191.78Z"/><path class="q" d="M391.35,198.46c10.17,7.1,12.56-7.9,15.32-14.15C399,190.89,406.89,195,391.35,198.46Z"/><circle class="w" cx="392.5" cy="178.3" r="0.5"/><circle class="w" cx="380.5" cy="182.3" r="0.36"/></svg>