<svg xmlns="http://www.w3.org/2000/svg" viewBox="0 0 249.27 240.68"><defs><style>.a{fill:none;stroke:#000;stroke-miterlimit:10;stroke-width:2px;}</style></defs><path class="a" d="M164.3,83.9c7.3-2.6,17-34,22-43,9-16,27.4-33.5,38.5-36.5M11.7.9c29,16.6,20.8,57.5,52.6,70.6,6.8,3.2,24.5,9.2,31.5,12M.3,126.4c34.7-11.5,54.4,20.4,86,2.6M15.6,216.3C35,176.8,82.2,187.5,88.3,140M129,240.3c-11.6-25.5-24.4-49.8.2-72.7,5.3-6,11.5-12.1,13.6-20.1m96.6,49.1c-15.5-3.8-24.5-17.4-35.2-28-13.8-13.3-30.6-15.2-48.4-23.2m93-79.9c-35.1,18.1-40.4,39.8-87.5,44.5m-54.6,5.2c-1,3.2-4.9,6.6-3.6,9.8,5.4,6.1,12.3,12.7,19.6,16.6,24.2,16.5,58.1-3.1,38.4-31.2-1.8,2.9-6.1,5.1-6.3,8.5,7.3,12.2-7,23.5-18.7,18.4C124.3,132.9,115.9,123.5,106.7,115.2ZM164.3,84c-11.7-30.7-41.1-14.9-53.5,6l8.1,4.6c12.5-12,24.3-25.4,37.4-4.6m-60-5c3.6-10.7,14.1-20,24.1-10,1.7,1.7,3.4-1.2,4.9-2,2.7-1.9,4.2-2.9,7-5-15.4-18.1-40.5-9.4-45,13m-2.8,48.1-.1-.4c-12.4-6-13.5-24.5.8-28.8,4.4-.8.7-6.3.9-9.3-21.6.9-26.6,28-10.8,42.4m87.1-25.4a30,30,0,0,0,2.5-23.1c-2.9,2.8-7.9,3.8-9,7.6-.1,10.4-6.9,19.8-15.6,24.9,1.6,2.5,3.1,5,4.7,7.6,7.6-4.4,14.4-10.6,18.3-18.7m-11.8.4c-2-4.5-8.9-28.1-13.8-26.7-10.2,6.1-5.8,5.6-2.3,14.6,2.2,6,5.3,13.1,7.4,19.2.6,4.2,7.5-5.9,8.7-7.1ZM98.3,133c3.6-9.4,9-19.9,15.7-27.7-2.2-1.8-7.5-6.7-9.6-3.1C98.1,110.9,94,121,90.3,131m-14.9,2.6c11.1,8.3,27.4,11.8,40.1,5.2-5.5-4.6-6.7-7.5-14.2-5.3C87.7,134,90.9,126.3,75.4,133.6Zm25.9-26.7c-2.5-6.1-3.8-15.8-4.2-21.2-1-3-6.7-2.9-9.3-4.7-3,13.2,1.9,24.6,7.6,35.8m26.9,12.1c-3.1-9.1,9.9-17.7,16-23.2.7-.5,1.7-.7.6-2.4-1.6-1.4-.9-7.6-3.8-5.7-8.1,6.6-18.1,14.1-19.9,25.2m6.2-12.4c9-8.2,5-6.2-2.3-13.9-3.4-2.9-19-11.9-21.8-7.4.8,2.5-.5,7.4,1.9,8.8,9.3,0,16.6,5.7,22.2,12.5Zm14.9,23.4c.1,3.1,0,3.2,2.7,3.8,1.9,0,6.1,2,6.1-1.1.6-9.1-4.2-17-10.1-23.5-.5-.6-2.3-2.4-3.1-1.6-10.6,7.5,4.5,8.9,4.4,22.4Z" transform="translate(0.01 -0.03)"/></svg>