<svg xmlns="http://www.w3.org/2000/svg" viewBox="0 0 266.73 230.4"><defs><style>.a{fill:none;stroke:currentColor;stroke-miterlimit:10;stroke-width:4px;}</style></defs><path class="a" d="M18,46.26c4.35,2.58,8.64,5.25,12.93,7.94Q55.27,69.49,79.62,84.79c2.86,1.79,5.92,3.3,8.55,5.38a28.63,28.63,0,0,1,4.9,5.7c6.79,9.28,13.51,18.62,20.3,27.91A13.72,13.72,0,0,0,118.3,128c9.21,4.62,18.46,9.17,27.66,13.82a14.49,14.49,0,0,1,6.16,6c8.65,16,17.09,32,25.94,47.87,1.85,3.31,5.09,6,8,8.55,9.54,8.44,19.21,16.72,28.85,25,4.41,3.81,9,7.46,13.25,11.41,1.18,1.09,1.68,3,2.42,4.52q2.86,6.09,5.65,12.22c1,2.29.66,2.88-1.84,2.88H18.05m0,0H234.4c1.32,0,2-.17,2.23-.57s.14-1.07-.41-2.29c-1.81-4-3.71-8.1-5.65-12.22-.2-.41-.37-.84-.55-1.27a9,9,0,0,0-1.87-3.24c-2.81-2.59-5.8-5.1-8.68-7.53-1.53-1.29-3.05-2.57-4.56-3.88l-5.62-4.84c-7.65-6.59-15.55-13.4-23.23-20.2l-.94-.82c-2.66-2.34-5.42-4.76-7.08-7.73-5.88-10.52-11.67-21.32-17.27-31.76q-4.85-9-9.72-18.05a7.87,7.87,0,0,0-3.22-3.09c-6-3.06-12.14-6.11-18.08-9.07q-6.5-3.23-13-6.48a7.34,7.34,0,0,1-2.48-2.15q-5.23-7.14-10.41-14.32-5.4-7.44-10.82-14.86l-.39-.53a25.67,25.67,0,0,0-4.5-5.16,49.07,49.07,0,0,0-5.7-3.69c-1-.55-1.91-1.11-2.85-1.7q-11.16-7-22.32-14L30.88,54.22C27,51.78,22.48,49,18,46.28m169.22,67.85c-.23-.15-.46-.28-.67-.4a7.42,7.42,0,0,1-1.15-.77l-10.66-9.31q-8.17-7.16-16.37-14.28-11-9.5-22-18.93L128,63.25l-1.35-1.17c-1.33-1.16-2.7-2.35-4.11-3.45a1.83,1.83,0,0,1-.26-3.12l3.12-3.42q5.13-5.62,10.23-11.27c2.22-2.47,4.47-5.07,6.88-8a2.18,2.18,0,0,1,1.59-1,2.46,2.46,0,0,1,1.53.75c5.91,5.09,6.64,5.73,34.79,29.89l15.79,13.55c4.07,3.5,8.43,7.26,12.75,11,1.06.93,1.57,1.4,1.59,1.88s-.43,1-1.32,1.9l-.08.08q-5.82,6.21-11.63,12.44-4.5,4.82-9,9.62a7.64,7.64,0,0,1-.83.71Zm-18.44,42.23c-.55,0-1.11-.44-2.16-1.42L161.28,150c-10.27-9.57-20.89-19.47-31.38-29.16-5-4.59-10.05-9.21-15-13.68q-4.38-4-8.74-8c-.52-.47-1-1-1.5-1.54l-.79-.86,2.92-3.18,5.8-6.38,3.93-4.3c2.91-3.19,5.83-6.38,8.72-9.58a2.22,2.22,0,0,1,1.59-.94,2.65,2.65,0,0,1,1.7.89c5.84,5.38,11.81,10.81,17.58,16.07q5.33,4.83,10.64,9.69t10.55,9.68c3.58,3.29,7.15,6.59,10.75,9.87,4.23,3.86,8.56,7.72,12.24,11,.86.77,1.37,1.33,1.4,1.9s-.44,1.21-1.3,2.14c-6.7,7.18-13.27,14.27-19.53,21.07C169.84,155.88,169.3,156.36,168.73,156.36ZM211.19,189c-.32,0-.64-.2-1.1-.71-5.62-6.24-11.19-12.36-16.42-18.1-2.66-2.93-2.66-2.93.18-5.74q6-6,12-11.88a7.7,7.7,0,0,1,1.08-.83l.61-.41c.16.13.33.25.48.35a4.44,4.44,0,0,1,.76.58q3.33,3.48,6.65,7,5.72,6,11.45,12c1.27,1.31.71,1.9-.77,3.45-.32.33-.68.71-1.07,1.15l-1.31,1.48a81.59,81.59,0,0,1-9.7,9.59c-.39.33-.73.63-1,.89C212.14,188.55,211.65,189,211.19,189Zm27.58,22.12-1.12-.21c-.78-.15-1.51-.28-2.23-.47-1.1-.28-2.19-.58-3.28-.88-1.4-.39-2.8-.77-4.22-1.12s-1.89-1.1-1.61-2.4l.38-1.82c.58-2.76,1.18-5.61,1.93-8.37.11-.4,1.16-.93,1.87-.93a.78.78,0,0,1,.22,0c3.24.74,6.44,1.63,9.49,2.64a2.36,2.36,0,0,1,1.21,2c-.55,2.81-1.22,5.6-1.92,8.55C239.25,209.08,239,210.08,238.77,211.11Zm-5.29-57.88a8.39,8.39,0,0,1-2.06-.55l-2.63-.88c-1.47-.49-2.94-1-4.41-1.45a1.76,1.76,0,0,1-1.14-.79,1.74,1.74,0,0,1,.1-1.39c.47-1.21.91-2.44,1.35-3.66.62-1.7,1.25-3.46,2-5.16a2.23,2.23,0,0,1,1.69-.88l.22,0c3,.85,5.88,1.88,8.32,2.78a2.32,2.32,0,0,1,.89.83c.13.16.26.33.4.47-.35.87-.67,1.73-1,2.57-.69,1.83-1.34,3.57-2,5.3-.19.46-.33.85-.46,1.19C234.26,152.76,234.09,153.23,233.48,153.23Zm13.4,89.25a3.59,3.59,0,0,1-1-.13c-.31-.09-.56-.16-.8-.25-4.32-1.5-5-2.57-4.49-7.18l0-.21c.23-2.11.46-4.29,2.74-5.26a15.66,15.66,0,0,1,2.94-.83c.46-.1.91-.2,1.36-.32l0,.28a2,2,0,0,0,.47.06l.35,0,.79,0a3.16,3.16,0,0,1,.94.12c.69.24,1.84.84,2,1.47a35.81,35.81,0,0,1,.94,7.64C253.16,240.13,249.49,242.48,246.88,242.48Zm-2.55-52.41a3.39,3.39,0,0,0-.28-.2,3.75,3.75,0,0,1-.8-.67c-.65-.79-1.29-1.59-1.92-2.39s-1.43-1.81-2.17-2.69a1.5,1.5,0,0,1,.33-2.57c.72-.51,1.42-1.05,2.12-1.58,1.12-.86,2.28-1.74,3.48-2.51a2.18,2.18,0,0,1,1-.23,1.89,1.89,0,0,1,1.22.34,42.13,42.13,0,0,1,4.55,5,2,2,0,0,1,0,2c-1.75,1.53-3.62,3-5.43,4.39l-1.28,1a.92.92,0,0,1-.43.12A3.24,3.24,0,0,0,244.33,190.07Zm17.8,29.76c-.67,0-1.52-.59-3.06-1.66l-.84-.57-.56-.37-1-.64c-1.09-.71-1.69-1.11-1.79-1.66s.4-1.47,1.74-3.4l.75-1c.29-.4.57-.78.85-1.18,1-1.43,1.41-2.07,2-2.07s1.11.47,2.22,1.33l1,.76c1,.72,1.9,1.44,2.83,2.2a4.34,4.34,0,0,1,.7.83l.31.42-.88,1.42c-.59,1-1.15,1.9-1.73,2.82C263.49,219,262.93,219.83,262.13,219.83Zm13.16,25c-.11-.12-.23-.23-.36-.35a2.53,2.53,0,0,1-.71-.87c-.71-1.91-1.52-4.13-2.1-6.35a2,2,0,0,1,.78-1.77,49.83,49.83,0,0,1,6.45-2.43l.16,0a2.23,2.23,0,0,1,1.63,1,55.65,55.65,0,0,1,2,6.59,1.77,1.77,0,0,1-.53,1.58c-1.73.7-3.51,1.31-5.39,1.95ZM264.42,257c-3.42,0-3.79-.46-3.92-4.88,0-1.24,3.09-3.81,4.7-3.88h0c1.28,0,4.2,2.71,4.21,3.87A4.75,4.75,0,0,1,268,255.6a5,5,0,0,1-3.6,1.44Z" transform="translate(-17.44 -30.87)"/></svg>