<svg xmlns="http://www.w3.org/2000/svg" viewBox="0 0 300 300"><defs><style>.a{fill:none;stroke:currentColor;stroke-miterlimit:10;stroke-width:2px;}</style></defs><path class="a" d="M124.59,147c-12,0-27,.24-39-.2-14.14-.53-21.51-10.39-21-22,.33-7.94,4.4-14.31,11.67-18.21,1-.52,2-.92,3.16-1.45-5.4-10.14-4.6-20,2.06-29.13,6.84-9.43,16.32-11.82,27.49-9.31-.93-11,3.51-19.7,11-27A36.75,36.75,0,0,1,143,29.36c20.79-1.85,38,11.72,39.9,32.9C195.46,56.84,206.59,59,215,69.8c7.83,10,7.6,20.87.32,31.49,8.38,1.19,14.06,5.83,17.17,13.43,5.46,13.34-2.93,28.12-17.59,30.89a77.9,77.9,0,0,1-13.4,1.19c-13.38.2-31.77.2-45.15.17M114.1,262.63l.5.32,70-91H182c-11.89,0-23.78-.09-35.66,0-4.58.05-3.88-1-2.23-4q11.56-20.58,23-41.2c.87-1.57,1.65-3.19,2.55-5a9.76,9.76,0,0,0-1.24-.21c-10.26,0-20.51.06-30.76.19a2.75,2.75,0,0,0-1.87,1.49q-14.73,33.3-29.36,66.65c-.24.56-.38,1.16-.63,1.94h35.55c2.33,0,2.58.41,1.69,2.5Q130.4,224,117.78,253.51C116.49,256.53,115.32,259.59,114.1,262.63ZM29,64,61,88m-3,12L37,97m205,3,21-4M238,86l35-24"/></svg>