<svg xmlns="http://www.w3.org/2000/svg" viewBox="0 0 351.32 231.91"><defs><style>.a{fill:none;stroke:currentColor;stroke-miterlimit:10;stroke-width:3px;}</style></defs><path class="a" d="M137,192.27c1,0,4.1,0,5.19-.09a35.54,35.54,0,0,0,24.44-15.25c1.38-2,2.19-2.19,5.26-2.24a24.74,24.74,0,0,1,3.51.27c14.36,2.28,26.76-1.91,37.64-11.27,15.4-13.25,17.44-40.6,7.23-57.46-7.3-12.08-18.17-18.9-31.72-21.77-2.24-.48-3.12-1.29-2.91-3.62a47.38,47.38,0,0,0-11.46-36c-9.07-10.67-20.75-16.46-35-16.7-13.19-.22-24.43,4.32-34.28,13-11.8,10.46-17.27,23.31-15.55,39,.56,5.13,1.93,10.17,3,15.66-1,.27-2.4.56-3.73,1-4.11,1.26-8.38,2.18-12.28,3.92C52.54,111.45,47.46,145,68.73,165.2c9.69,9.22,21.71,12.13,34.7,11.8a8,8,0,0,1,7,3.09c6.23,7.29,15.17,11.93,27.56,12.16v64.87m177.56.95H-35.76" transform="translate(35.76 -27.16)"/></svg>