<svg xmlns="http://www.w3.org/2000/svg" viewBox="-25 -10 252.67 276.69"><defs><style>.a{fill:none;stroke:currentColor;stroke-miterlimit:10;stroke-width:3px;}</style></defs><path class="a" d="M150.24,265.59c1.72,0,3.43,0,5.06.08l.83,0c8.09,0,13.78-4.33,17.38-13.24a.47.47,0,0,0,0-.47.48.48,0,0,0-.41-.22h-46a.5.5,0,0,0-.44.74l.74,1.36c.48.91.94,1.75,1.41,2.59,3.44,6.13,8.62,9.24,15.4,9.24l.73,0C146.72,265.62,148.52,265.59,150.24,265.59Zm-23.78-27.73a.5.5,0,0,0-.5.5v10.23a.5.5,0,0,0,.5.5h47.46a.5.5,0,0,0,.5-.5V238.36a.5.5,0,0,0-.5-.5Zm0-14a.5.5,0,0,0-.5.5v10.25a.5.5,0,0,0,.5.5h47.37a.5.5,0,0,0,.5-.5V224.34a.5.5,0,0,0-.5-.5ZM141.2,80.48a59.15,59.15,0,0,0-15.29,4.25,57.56,57.56,0,0,0-15.81,10.2c-12.78,11.53-19.62,25.54-20.34,41.64-.51,11.27,1.92,21.3,7.23,29.81a132,132,0,0,0,8.83,12c.87,1.11,1.75,2.22,2.62,3.34,4.08,5.25,8.58,11.47,10.3,18.85a84.89,84.89,0,0,1,1.48,9.91c.16,1.55.33,3.1.54,4.65.45,3.34,2.08,4.94,5.15,5,2,0,4.14.07,6.79.07h4.85l5.31,0a.48.48,0,0,0,.36-.15.55.55,0,0,0,.14-.37l-2-59.76c-3.13-2.06-7.95-2.3-11.21-4.25-8.38-2.77-7.84-18.28,2.74-17.59,5.71-.13,9,6.25,9.23,10.84,0,3.09-1.84,7.31-1.1,10.55,0,1.16,12.27.18,16.74.53,2.66-1.63.17-2.51-.26-5-3.57-21.5,21.34-22.07,17.56-5.19-3.56,9.4-13.21,6.49-16.56,10.19l-1.81,59.66a.5.5,0,0,0,.14.36.51.51,0,0,0,.36.15l5.31,0,4.89,0c2.68,0,4.87,0,6.88-.09,2.86-.08,4.9-1.79,5.2-4.34.08-.69.17-1.37.26-2.05a53.76,53.76,0,0,0,.56-6.49c0-6.56,2.16-12.8,6.56-19.09,2-2.9,4.29-5.72,6.49-8.45,2.05-2.54,4.17-5.18,6.1-7.88,10.7-15,13.44-31.72,8.16-49.67A57.64,57.64,0,0,0,189,94.26c-11.33-9.59-24.26-14.46-38.44-14.46a67.1,67.1,0,0,0-8.86.61Zm62.3,111,19,19M74,137.84H48.83M76.5,210.5l19-19m-19-126,19,19m131,53h25m-49-53,18-19m-68-25v22" transform="translate(-48.83 -40.5)"/></svg>