<svg xmlns="http://www.w3.org/2000/svg" viewBox="0 0 338.97 131.47"><defs><style>.a{fill:none;stroke:currentColor;stroke-miterlimit:10;stroke-width:2px;}</style></defs><path class="a" d="M343,115.84l-65.67-4.75L230.1,135.9c0-7.17,0-16.81,0-27.42,0-24.32,0-53.75,0-70.18L276,15.4,230,37.6,66.5,27.9l-.44,70.39c-.3,29.4-.76,26.11,1,27.81,45.8,3.3,116.84,6.48,162.64,10l47.56-25V19c0-3.8,0-3.8-3.9-4-.9-.1-157.4-8.3-158.2-7.9C99.6,13.3,84,19.7,68.4,25.9c-2,.8-2.5,1.9-2.5,3.9.1,23.2,0,46.39,0,69.59L4.13,96" transform="translate(-4.07 -6.09)"/></svg>