<svg xmlns="http://www.w3.org/2000/svg" viewBox="0 0 258.24 107.16"><defs><style>.a{fill:none;stroke:currentColor;stroke-miterlimit:10;stroke-width:3px;}</style></defs><path class="a" d="M262.77,114.52c-.28-25.85-39.87-24.9-39.6.15C222.9,141.78,263.64,139.73,262.77,114.52Z" transform="translate(-14.34 -94.01)"/><path class="a" d="M228,186c7.12-14.68,20.77-41.87-1.95-48.25-14.58-3.31-35.55,15.93-48.92,23.21-.29.16-.57.33-.85.52-5.76,3.8-11.32,3.66-17-.18-13.93-9.3-27.85-18.68-42.27-27.21-6.32-4.16-11.93-.14-16.4,4.69q-18.6,18.56-37.19,37.11c-1.66,1.65-2.76,3.44-2.6,5.87-.06,3.08,4.66,1,6.66,1.8A15.59,15.59,0,0,0,82.94,179c38.94-34.71,14.66-27.1,57.06,1,2,1,20.49,18.85,35.27,15.14,19-4.77,34-21.61,48.73-34.14" transform="translate(-14.34 -94.01)"/><path class="a" d="M272,190c-38.89-16.16-63.63,8-99.8,9.14l-.72.05C126.26,204,54.18,170.76,15,190" transform="translate(-14.34 -94.01)"/></svg>