<svg xmlns="http://www.w3.org/2000/svg" viewBox="0 0 236.03 248.9"><defs><style>.a{fill:none;stroke:currentColor;stroke-miterlimit:10;stroke-width:3px;}</style></defs><path class="a" d="M218.57,81.22c4.23,0,8.67-.65,12.85.11,14.88,2.72,24.73,11.61,29.82,25.82,8.79,24.53-8.11,45.86-29.59,49.29a106.64,106.64,0,0,1-16.85,1.21c-34.63,0-69.27-.22-103.9-.26-17.55,0-35.11.35-52.66.22a47.43,47.43,0,0,1-13.6-2.05c-9.29-2.9-14.69-11.63-14-21.46C31.5,122,38.22,114.31,49.19,110c2.56-1,5.25-1.69,8.13-2.61C56.4,94.28,62.76,84.24,72.6,76.22s21.46-10.68,33.9-7.63c1.87-4,3.49-8.55,5.9-12.57,9.18-15.35,22.31-25.48,40.2-28.39,14.07-2.3,28-1.57,40.67,5.88C206.5,41.29,214.19,53.13,217,68.13,217.8,72.44,218.06,76.85,218.57,81.22ZM83.68,172.13l-10,44M117.5,171.5l-26,102m71-101-17,72m63-72-24,95" transform="translate(-29.08 -24.97)"/></svg>